<?xml version="1.0" encoding="utf-8"?>
<!-- Generator: Adobe Illustrator 25.2.3, SVG Export Plug-In . SVG Version: 6.00 Build 0)  -->
<svg version="1.1" xmlns="http://www.w3.org/2000/svg" xmlns:xlink="http://www.w3.org/1999/xlink" x="0px" y="0px"
	 viewBox="0 0 1125 1394.55" style="enable-background:new 0 0 1125 1394.55;" xml:space="preserve">
<style type="text/css">
	.st0{opacity:0.6;fill:#CC6666;}
	.st1{fill:none;}
	.st2{font-family:'Lexend-Thin';}
	.st3{font-size:36px;}
	.st4{font-size:18px;}
	.st5{opacity:0.6;fill:none;stroke:#000000;stroke-miterlimit:10;}
	.st6{opacity:0.6;fill:#669999;}
	.st7{font-family:'Lexend-Regular';}
	.st8{font-size:48px;}
	.st9{font-size:150px;}
</style>
<g id="Imágen">
	
		<image style="overflow:visible;" width="2732" height="2048" xlink:href="CFAB83EC.png"  transform="matrix(0.3733 0 0 0.3733 57.5698 41.8256)">
	</image>
	
		<image style="overflow:visible;" width="2732" height="2048" xlink:href="CFAB83EB.png"  transform="matrix(0.3733 0 0 0.3733 57.5698 41.8256)">
	</image>
</g>
<g id="Texto_Sin_mouse">
	<circle class="st0" cx="875.23" cy="157.47" r="66.36"/>
	<circle class="st0" cx="742.52" cy="609.35" r="66.36"/>
	<circle class="st0" cx="147.61" cy="469.5" r="66.36"/>
	<rect x="342.41" y="771.89" class="st1" width="555.98" height="134.18"/>
	<text transform="matrix(1 0 0 1 342.4107 798.5282)"><tspan x="0" y="0" class="st2 st3">Sus orejas son dos tercios de la </tspan><tspan x="0" y="43.2" class="st2 st3">longitud de la cabeza del </tspan><tspan x="0" y="86.4" class="st2 st3">pequeño zorro.</tspan></text>
	<rect x="342.41" y="1158.43" class="st1" width="533.87" height="153.1"/>
	<text transform="matrix(1 0 0 1 342.4118 1185.0697)"><tspan x="0" y="0" class="st2 st3">Tiene manchas café rojizas en la </tspan><tspan x="0" y="43.2" class="st2 st3">parte inferior de sus cuatro </tspan><tspan x="0" y="86.4" class="st2 st3">patas y en sus orejas.</tspan></text>
	<rect x="342.41" y="970.02" class="st1" width="561.16" height="153.69"/>
	<text transform="matrix(1 0 0 1 342.4111 996.6611)"><tspan x="0" y="0" class="st2 st3">Su cola mide entre 17,5 y 25,5 cm, </tspan><tspan x="0" y="43.2" class="st2 st3">es relativamente corta y con un </tspan><tspan x="0" y="86.4" class="st2 st3">pelaje denso.</tspan></text>
</g>
<g id="Texto_Huesos_Hover">
	<rect x="961.93" y="145.2" class="st1" width="118.86" height="41.61"/>
	<text transform="matrix(1 0 0 1 961.9348 158.521)"><tspan x="0" y="0" class="st2 st4">Cráneo </tspan><tspan x="0" y="21.6" class="st2 st4">pequeño</tspan></text>
	<rect x="974.64" y="316.02" class="st1" width="93.46" height="22.8"/>
	<text transform="matrix(1 0 0 1 974.6365 329.3378)" class="st2 st4">Mandíbula</text>
	<rect x="680.5" y="134.56" class="st1" width="136.21" height="50.38"/>
	<text transform="matrix(1 0 0 1 680.4948 147.8831)"><tspan x="0" y="0" class="st2 st4">Vértebras </tspan><tspan x="0" y="21.6" class="st2 st4">cervicales</tspan></text>
	<rect x="850.65" y="365.82" class="st1" width="162.96" height="14.58"/>
	<text transform="matrix(1 0 0 1 850.6469 379.1392)" class="st2 st4">Húmero</text>
	<rect x="751.08" y="500.81" class="st1" width="162.96" height="14.58"/>
	<text transform="matrix(1 0 0 1 751.0786 514.126)" class="st2 st4">Radio y cúbito</text>
	<rect x="439.73" y="457.62" class="st1" width="162.96" height="14.58"/>
	<text transform="matrix(1 0 0 1 439.7254 470.9433)" class="st2 st4">Tibia y peroné</text>
	<rect x="539.12" y="406.47" class="st1" width="70.2" height="14.58"/>
	<text transform="matrix(1 0 0 1 539.1238 419.7861)" class="st2 st4">Costillas</text>
	<rect x="400.72" y="113.81" class="st1" width="119.61" height="36.04"/>
	<text transform="matrix(1 0 0 1 400.7182 127.1286)"><tspan x="0" y="0" class="st2 st4">Vértebras </tspan><tspan x="0" y="21.6" class="st2 st4">lumbares</tspan></text>
	<rect x="193.5" y="154.64" class="st1" width="162.96" height="40.79"/>
	<text transform="matrix(1 0 0 1 193.4973 167.9639)"><tspan x="0" y="0" class="st2 st4">Vértebras </tspan><tspan x="0" y="21.6" class="st2 st4">Coccigeas</tspan></text>
	<line class="st5" x1="956.92" y1="158.85" x2="919.95" y2="195.82"/>
	<line class="st5" x1="773.64" y1="303.67" x2="844.96" y2="374.99"/>
	<line class="st5" x1="701.31" y1="459.84" x2="745.33" y2="503.87"/>
	<line class="st5" x1="406.62" y1="418.88" x2="438.47" y2="450.72"/>
	<line class="st5" x1="607.66" y1="371.49" x2="576.46" y2="402.69"/>
	<line class="st5" x1="803.67" y1="225.93" x2="750.72" y2="172.98"/>
	<line class="st5" x1="512.06" y1="206.38" x2="459.62" y2="153.95"/>
	<line class="st5" x1="317.24" y1="227.66" x2="281.12" y2="191.53"/>
	<line class="st5" x1="968" y1="324.07" x2="944.07" y2="300.13"/>
</g>
<g id="Huesos_Hover">
	<path class="st6" d="M794.06,320.59c-0.47-2.79-4.8-1.37-6.19-6.72c-1.39-5.35,3.81-4.96,4.41-8.13
		c0.59-3.17-14.12-34.4-28.55-43.12c-9.29-5.61-18.64-7.84-29.89-3.83c-11.1,3.96-22.58,17.63-23.57,21s-1.58,12.08,5.35,13.07
		c6.93,0.99,38.82,12.88,43.78,17.83c4.95,4.95,14.86,9.51,16.24,12.28c1.39,2.77,0.59,5.94,2.97,5.94s2.38-5.55,6.54-6.14
		C789.31,322.18,794.9,325.57,794.06,320.59z"/>
	<path class="st6" d="M610.64,253.14c0,0-19.02,5.65-27.34,18.12c-8.32,12.48-16.94,30.01-17.23,42.19
		c-0.3,12.18,4.75,24.36,8.02,28.23s11.89,16.94,16.64,20.5c4.75,3.57-6.24-12.78-8.62-16.64s-13.37-17.83-11.29-29.71
		c2.08-11.89,9.2-37.14,17.52-43.38s13.08-13.59,23.48-15.71C622.22,254.63,615.39,253.14,610.64,253.14z"/>
	<path class="st6" d="M630.54,256.75c0,0-8.26,1.35-13.27,3.53c-8.38,3.64-20.6,13.96-23.87,21.69
		c-3.27,7.73-10.1,24.96-11.59,36.55c-1.49,11.59-0.3,16.94,0,21.99s8.32,17.23,11.29,19.02c2.97,1.78-5.35-8.91-5.94-15.15
		c-0.59-6.24-1.4-32.68,4.5-45.16c5.9-12.48,14.58-23.71,22.87-29.6c6.69-4.75,15.12-7.54,21.65-8.13
		C642.73,260.87,634.95,255.89,630.54,256.75z"/>
	<path class="st6" d="M646.69,260.18c0,0-16.84,5.15-23.77,12.88c-6.93,7.73-11.89,15.25-16.24,22.98
		c-4.36,7.73-7.92,25.95-9.31,31.89s-1.39,19.61,0,25.35c1.39,5.74,3.37,12.08,9.11,17.04c5.74,4.95,18.62,10.1,18.82,10.7
		c0.2,0.59-1.58-3.57-6.54-6.93c-4.95-3.37-14.86-9.9-16.44-17.83c-1.58-7.92,0.16-29.32,3.15-39.22
		c2.99-9.9,16.66-38.43,24.19-43.78c7.53-5.35,17.04-3.57,19.02-5.74S649.46,259.24,646.69,260.18z"/>
	<path class="st6" d="M661.15,262.16c0,0-3.17,2.77-5.94,3.76c-2.77,0.99-16.44,8.32-22.19,18.03
		c-5.74,9.71-15.25,38.23-17.23,44.97c-1.98,6.73-6.93,25.37-1.98,33.78c4.95,8.41,16.24,17.92,20.01,19.7
		c3.76,1.78,6.34,2.97,8.91,3.76c2.58,0.79-7.92-4.56-11.69-8.52c-3.76-3.96-14.85-16.04-13.76-27.53s13.41-51.9,19.13-59.43
		c5.72-7.53,15.03-22.78,21.37-22.38c6.34,0.4,10.7,0,9.71-1.78C666.5,264.73,662.79,260.85,661.15,262.16z"/>
	<path class="st6" d="M676.4,264.73c0,0-9.11,1.19-16.44,9.11c-7.33,7.92-19.02,31.1-22.58,45.16c-3.57,14.06-8.91,26.74-4.95,39.02
		s17.43,28.13,25.75,29.91c8.32,1.78,17.63,2.18,19.81,2.18c2.18,0-20.8-5.23-24.96-9.05c-4.16-3.82-17.04-18.48-17.63-26.2
		s9.11-41.4,12.28-49.92c3.17-8.52,10.1-25.16,19.02-30.31c8.91-5.15,12.08-2.18,12.88-5.15
		C680.36,266.52,679.57,265.92,676.4,264.73z"/>
	<path class="st6" d="M694.03,269.49c-4.36,0-12.48-2.18-18.22,6.14s-19.02,29.71-22.19,51.8c-3.17,22.09-5.94,30.21-1.19,39.52
		c4.75,9.31,11.51,15.05,19.52,17.43c8.01,2.38,9.4,4.16,12.37,3.76c2.97-0.4,1.36-2.77-4.47-5.55c-5.83-2.77-19.3-6.73-21.68-14.26
		s-1.19-32.49,2.18-42.79s10.5-38.23,16.24-44.77c5.74-6.54,12.88-3.17,17.43-5.55c4.56-2.38,7.53-0.99,5.55-2.77
		C697.6,270.67,694.03,269.49,694.03,269.49z"/>
	<path class="st6" d="M708.49,270.48c0,0-0.99-3.37-2.18-2.77c-1.19,0.59-1.19,0.99-2.58,2.77c-1.39,1.78-8.72,5.35-15.65,21.39
		s-13.47,40.81-14.26,49.32c-0.79,8.52-4.16,7.33-2.58,14.86s-1.78,12.68,7.73,18.42s16.24,9.9,20.01,10.1
		c3.76,0.2,8.91-3.51,8.91-3.51s-16.44-1.05-23.37-6.99c-6.93-5.94-7.15-23.57-4.67-35.66c2.49-12.08,9.42-49.92,17.74-56.06
		c8.32-6.14,13.07-5.55,14.46-7.92S711.07,271.07,708.49,270.48z"/>
	<path class="st6" d="M708.69,283.95c-1.98,5.74-7.07,15.05-8.49,17.83c-1.42,2.77-9.94,25.16-8.55,41.4
		c1.39,16.24-3.56,18.42,6.34,26.54c9.9,8.12,22.78,9.11,24.36,8.91c1.58-0.2,3.37-2.58-1.39-3.96
		c-4.75-1.39-22.19-3.96-23.18-17.23c-0.99-13.27,0.59-42.38,4.75-49.52c4.16-7.14,9.92-16.35,9.92-16.35"/>
	<path class="st6" d="M720.07,293.93c-2.67,4.28-5.41,11.61-7.61,25.67c-2.19,14.06-6.15,38.45,1.57,44.58
		c7.73,6.13,11.89,9.3,18.22,8.7c6.34-0.59,8.72-0.59,8.32-2.18s-3.76,0.79-8.91-0.59c-5.15-1.39-13.07-4.16-14.46-12.68
		c-1.39-8.52-2.58-33.28,0.59-41c3.17-7.73,9.09-20.33,9.09-20.33"/>
	<path class="st6" d="M732.56,298.12c-1.29,2.07-7.39,19.91-7.51,33.18s0.67,23.36,8.6,28.41c7.92,5.05,14.06,7.23,16.24,5.45
		c2.18-1.78,4.84-5.15,2.02-5.45c-2.81-0.3-7.98,2.87-12.83,0c-4.84-2.87-10.39-16.32-8.41-28.41c1.98-12.09,1.96-25.3,8.41-30.68"
		/>
	<path class="st6" d="M743.67,302.48c0,0-6.85,9.19-7.25,17.12c-0.4,7.92-1.39,28.72,5.55,33.48c6.93,4.75,13.07,6.34,17.23,5.55
		c4.16-0.79,10.3-4.75,4.36-4.95s-11.89,4.16-17.23-4.95c-5.35-9.11-7.92-27.14-3.57-33.87s6.46-9.94,6.46-9.94"/>
	<path class="st6" d="M753.13,306.78c-1.26,2.72-5.22,14.4-4.43,20.64s0.4,15.35,5.35,17.53c4.95,2.18,13.07,4.56,17.43,2.77
		c4.36-1.78,4.95-5.15,0-5.74c-4.95-0.59-9.9-1.39-12.68-5.15s-4.36-12.68-3.57-18.03c0.79-5.35,3.15-8.96,3.15-8.96"/>
	<path class="st6" d="M764.62,314.85c-2.05,3.36-4.23,12.19-1.46,15.8s8.38,7.97,11.81,8.36s8.19-2.97,5.82-3.37
		s-5.82,0.55-9.15-2.2c-3.33-2.75-6.65-11.07-2.52-15.62"/>
	<path class="st6" d="M791.49,326.11c5.62,1.28,5.15,3.66,0.79,12.94c-4.36,9.28-2.58,12.45-13.27,18.39
		c-10.7,5.94-15.85,16.49-27.93,21.22c-12.08,4.73-41,17.61-51.9,21.97c-10.89,4.36-6.93,5.94-5.74,10.3
		c1.19,4.36,2.06,8.12-1.94,9.11c-4,0.99-10.17,0-11.64-4.56c-1.47-4.56-2.86-8.12,1.5-12.08c4.36-3.96,12.68-10.1,23.57-13.27
		s35.25-13.07,43.67-20.2c8.42-7.13,19.64-14.46,23.04-18.82c3.41-4.36,10.73-10.89,11.13-13.47c0.4-2.58-5.15-1.65-2.97-5.68
		C781.98,327.92,786.14,324.89,791.49,326.11z"/>
	<path class="st6" d="M674.22,400.62c-2.1-2.86-6.14-2.18-8.72,0c-2.58,2.18-7.25,7.33,2.12,20.8c9.37,13.47,16.5,24.17,20.46,38.23
		c3.96,14.06,8.52,34.66,8.72,44.97c0.2,10.3,26.64,72.47,27.93,78.79c1.78,8.77,7.42,21.19,14.86,34.47
		c4.16,7.43,8.72,12.53,15.05,13.72c6.34,1.19,6.54,5.94,6.34,1.19c-0.2-4.75-7.53-7.92-7.53-7.92s10.1,3.57,15.25,2.38
		c5.15-1.19,7.33,8.3,8.72,7.62c1.39-0.68,0-9.6,0-9.6s8.91,6.54,8.91,8.12s3.76-3.57,3.57-4.36c-0.2-0.79,8.12,2.38,0.99-2.97
		c-7.13-5.35-15.53-5.05-29.71-8.91c-21.29-5.79-19.69-28.75-22.87-35.09s-8.77-28.5-11.94-33.85c-3.17-5.35-6.24-18.08-5.65-23.03
		c0.59-4.95-14.21-56.21-18.37-67.5c-4.16-11.29-9.31-20.8-6.93-26.15c2.38-5.35,1.78-8.12,1.98-9.51c0.2-1.39-3.37,0.99-8.72,0.4
		c-5.35-0.59-13.87-1.78-14.66-8.12C673.23,407.95,676.4,403.59,674.22,400.62z"/>
	<path class="st6" d="M789.71,292.83c3.76-1.95,0.76-5.52,4.44-6.51s6.85-3.96,4.67-4.95c-2.18-0.99-7.73,1.58-9.11,0
		c-1.39-1.58,2.58-3.17,1.78-6.73c-0.79-3.57-6.93-9.24-7.53-12.74c-0.59-3.5,2.38-9.64,1.39-13.41c-0.99-3.76-2.77-4.16-5.15-3.17
		s-3.57,10.9-2.97,14.76c0.59,3.86,5.64,7.62,4.21,10.2s-4.36,5.85-4.36,5.85"/>
	<path class="st6" d="M773.64,271.71c-1.7-1.97-2.56-5.19-3.15-11.63c-0.59-6.44,1.19-14.1-3.37-15.22
		c-4.56-1.12-3.37,1.65-2.77,5.42c0.59,3.76-1.85,11.62-1.85,11.62"/>
	<path class="st6" d="M757.42,259.37c0,0,0.59-9.69-1-12.27c-1.58-2.58-3.96-2.18-5.35-1.19c-1.39,0.99,1.78,11.86,0.83,11.65"/>
	<path class="st6" d="M743.16,256.81c0,0,0.79-4.95,0-7.92c-0.79-2.97-2.36-6.67-6.13-4.03c-3.77,2.64-0.78,8.59,0,10.17
		c0.78,1.58,0,2.78,0,2.78"/>
	<path class="st6" d="M733.85,258.79c0,0-7.73-7.33-7.33-10.5c0.4-3.17,0.02-3.7-1.48-3.43s-3.28-1.12-4.07,1.65
		c-0.79,2.77,0.2,3.96,2.18,6.64s4.15,6.63,4.12,7.82c-0.03,1.2-1.52,2.21-1.52,2.21"/>
	<path class="st6" d="M726.81,259.37c0,0-12.55-5.53-14.35-9.5c-1.8-3.96,0.38-3.57-2.98-3.17c-3.37,0.4-3.82,2.2-1.71,5.56
		s8.88,12.47,8.88,12.47s-16.09-16.92-19.65-18.26c-3.57-1.35-6.54-1.82-6.54,0s9.96,8.68,9.74,11.69c-0.23,3.01-0.23,5.39-3,6.57
		s-0.94,5.35,0.72,6.54s4.48,0.44,4.48,0.44"/>
	<path class="st6" d="M700.05,260.08c0,0-14.34-7.83-17.31-11.39s-7.13-6.98-8.91-4.08c-1.78,2.89,12.88,12.63,11.09,14
		c-1.78,1.37-8.25,2.23-6.5,4.57c1.75,2.34,8.88,5.32,12.05,3.53C693.63,264.93,699.13,265.92,700.05,260.08z"/>
	<path class="st6" d="M683.42,259.37c0,0-4.19,0.06-8.38-5.41s-6.96-11.15-9.34-9.1s0.68,5.26,1.92,9.1c1.25,3.84,4.37,2.58,3.2,4.2
		c-1.17,1.62-4.18-0.16-6.01,1.92s1.34,4.65,1.34,4.65s10.3,0.21,11.43-1.55"/>
	<path class="st6" d="M666.31,250.88c-0.69-1.44-2.98-6.33-5.56-6.14c-2.58,0.18-0.79,5.35-1.39,7.52s-5.35,4.52-5.15,7.11
		c0.2,2.59,5.17,2.82,6.93,2.79s3.19-1.24,3.19-1.24s1.58-1.86,1.96-4.17C666.69,254.43,666.31,250.88,666.31,250.88z"/>
	<path class="st6" d="M655.44,243.52c0,0,0.36-1.21-2.81,0c-3.17,1.21-4.16,5.37-6.93,5.37c-2.77,0-4.95,5.82-2.38,7.76
		c2.58,1.94,4.6,2.86,6.56,1.51c1.96-1.35,6.91-3.11,6.91-5.9C656.79,249.48,655.44,243.52,655.44,243.52z"/>
	<path class="st6" d="M644.31,247.7c1.85-2.04,0.4-2.58,1.58-5.74c1.19-3.17-4.68-4.95-7.19-3.17s-9.45,5.74-9.64,8.91
		c-0.2,3.17,2.18,3.58,5.94,5.75c3.76,2.17,1.37-0.55,4.65-2.56C642.92,248.89,642.33,249.88,644.31,247.7z"/>
	<path class="st6" d="M632.03,238.08c-1.71-1.35-3.42,5.14-9.04,4.91c-5.62-0.24-17.5-1.59-19.48,0.97
		c-1.98,2.56-2.97,6.15,0.79,6.93c3.76,0.78,14.46,5.86,19.41,4.51s4.16-4.08,2.38-4.5s-1.39-3.29,1.39-5.62
		C630.25,242.94,635.4,240.74,632.03,238.08z"/>
	<path class="st6" d="M626.29,232.84c-0.86,0.53-3.96,3.37-7.53,3.37c-3.57,0-9.51,1.78-9.9,2.77s-0.1,3.46,1.04,3.45
		c1.14-0.02,10.44,0.99,13.1,0.55s7.23-3.41,8.04-5.98C631.83,234.43,629.65,230.75,626.29,232.84z"/>
	<path class="st6" d="M607.67,234.23c-3.35-1.23-8.32,3.69-12.28,3.43s-12.68-1.98-13.47-1.71s2.97,5.69,3.57,7.04
		c0.59,1.35-4.95,5.11-0.59,6.7s8.41,5.94,9.85,3.47s3.22-2.26,3.22-2.26s1.83,3.98,3.79,3.37c1.96-0.61-6.96-7.24-3.79-8.98
		c3.17-1.74,6.3-2.53,7.51-4.51C606.68,238.78,611.43,235.61,607.67,234.23z"/>
	<path class="st6" d="M587.06,232.22c1.31-0.61,8.72-0.37,10.7-2.35c1.98-1.98,4.91-3.17,7.71-1.58s2.53,2.59,1.41,4.2
		s-8.02,6.56-10.55,5.14c-2.53-1.42-17.01,0.17-14.52-2.8C584.29,231.85,583.7,233.78,587.06,232.22z"/>
	<path class="st6" d="M799.53,254.58c0,0,3.49-4.11,0-7.38c-3.49-3.27-7.05-4.46-7.35,0c-0.3,4.46-0.89,10.6-2.67,12.88
		c-1.78,2.28-1.42,6.34,4.64,8.76s0.05,3.91,0.68,5.69c0.62,1.78,3.59,7.43,8.35,1.78c4.75-5.65,8.62-8.32,11.29-9.06
		c2.67-0.74-1.49-3.51-3.86-7.18c-2.38-3.67,0.59-9.38-2.08-9.2C805.85,251.06,802.72,256.62,799.53,254.58z"/>
	<path class="st6" d="M813.87,253.45c2.67,2.67-2.13,8.18,1.46,9.73s2.11-5.43,6.27-9.22s10.99-7.91,8.02-10.01
		c-2.97-2.1-8.19,0.28-7.51-4.48c0.68-4.75-5.91-6.54-6.78-2.67s-1.46,2.97-4.73,0c-3.27-2.97-5.94-4.88-6.24,1.27
		s-6.24,7.02-2.41,10.63c3.83,3.62,7.17-0.57,9.25,0C813.28,249.28,813.87,253.45,813.87,253.45z"/>
	<path class="st6" d="M838.83,231.45c3.21-4.42-1.49-13.37-4.46-18.42s-6.83-3.57-9.81,0s-5.94,10.7-9.06,12.18
		c-3.12,1.49-5.2,5.94-3.72,6.24c1.49,0.3,8.62,0.66,10.4,2.56c1.78,1.9-0.79,4.28,2.87,5.17c3.66,0.89,2.14,4.16,5.28,2.38
		c3.14-1.78-1.02-7.06,2.54-7.54C836.45,233.53,836.45,234.72,838.83,231.45z"/>
	<path class="st6" d="M848.93,206.2c-3.86-1.19-7.65,0.89-9.02,2.08c-1.38,1.19-6.43,1.49-4.35,2.97
		c2.08,1.49,9.21,14.86,7.73,16.64c-1.49,1.78-0.3,6.83,2.97,1.78c3.27-5.05,8.02-7.08,8.62-10.82c0.59-3.74-1.49-6.98-3.86-9.07
		C848.64,207.68,848.93,206.2,848.93,206.2z"/>
	<path class="st6" d="M857.55,177.97c-2.61,4.24-0.09,7.43-2.57,12.18c-2.48,4.75-5.75,11.59-3.67,13.07
		c2.08,1.49,3.86,4.46,6.24,9.21s-4.46,10.7,3.86,11.59c8.32,0.89,13.37,5.05,16.64-2.67c3.27-7.73,1.49,4.75,1.49,6.24
		c0,1.49-8.91,1.85-7.13,6.42s9.51,10.76,11.89,16.88s-1.78,14.44,14.86,23.05s37.44,22.88,61.21,22.28
		c23.77-0.59,36.25-6.73,41.3-12.28s-9.21-11.59-9.21-15.1s3.86-8.3-1.19-9.47c-5.05-1.18-20.8-11.58-25.26-13.21
		c-4.46-1.63-15.15-5.73-17.83-12.15c-2.67-6.42-6.83-17.12-11.29-22.47c-4.46-5.35-32.98-30.6-41.6-33.58
		c-8.62-2.97-24.36-5.35-29.12-4.46C861.41,174.41,859.93,174.11,857.55,177.97z"/>
	<path class="st6" d="M583.3,226.7c-1.19,1.93-6.09,3.71-5.35,6.01c0.74,2.31,4.33,7.51,3.13,9.59c-1.2,2.08-1.94,12.03-5.36,9.51
		c-3.42-2.53-6.54-9.71-7.43-8.72c-0.89,0.99-1.49,1.58-3.71,3.66c-2.23,2.08-8.62-3.9-10.4-7.3c-1.78-3.4-4.46-4.54-4.16-7.24
		c0.3-2.7-3.71-3.44-3.57-5.52c0.15-2.08-1.63-6.09,4.75-5.5s6.86-1.93,13.61-3.12c6.75-1.19,9.72,0.89,8.23,2.97
		c-1.49,2.08-4.46,5.65-1.78,7.13s5.65-1.78,9.06-2.82C583.75,224.32,583.3,226.7,583.3,226.7z"/>
	<path class="st6" d="M550.32,218.38c0.43-2.36-3.71-2.38-5.65-2.38c-1.93,0,5.65-1.93,2.82-4.9c-2.82-2.97-6.09-2.53-8.77-2.23
		c-2.67,0.3-4.16,4.69-8.02,4.65c-3.86-0.04-7.28-0.64-7.73,1.59c-0.45,2.23-5.05,1.24-5.2,2.62c-0.15,1.39,4.9,5.99,4.75,8.82
		c-0.15,2.82,2.53,6.34,7.43,7.48c4.9,1.14,6.39,7.77,9.95,9.06c3.57,1.29,4.46,0.99,3.57-3.91c-0.89-4.9,4.85-4.32,3.91-6.47
		c-0.94-2.15-5.7-3.6-5.25-6.51c0.45-2.92,2.77-6.04,5.25-6.19S550.02,220.01,550.32,218.38z"/>
	<path class="st6" d="M518.97,211.1c-0.84-0.09-4.9,0.89-4.16-1.04c0.74-1.93,5.5-4.31,4.9-6.09c-0.59-1.78-4.75-5.05-9.21-2.53
		s-7.87,6.4-10.4,7.21c-2.53,0.81-4.46,2.89-5.94,3.93c-1.49,1.04,2.38,1.19,2.38,4.16s-5.43,6.39-2.72,8.32
		c2.72,1.93,5.84,1.26,10.89,2.48s2.08,5.15,7.58,7.43c5.5,2.27,9.51,4.12,6.83,0s0.3-3.75,0.3-7.43c0-3.67-1.63-3.82-2.97-6.05
		c-1.34-2.23,4.9-4.9,4.75-7.58C521.05,211.25,520.14,211.23,518.97,211.1z"/>
	<path class="st6" d="M494.16,207.09c-1.04-1.49-7.58-0.45-5.05-2.82s5.82-2.08,3.95-4.31s-4.99-3.12-8.26-0.74
		c-3.27,2.38-2.97,5.94-6.09,7.13c-3.12,1.19-6.24,1.35-6.24,2.31c0,0.96,0.74,3.93-1.04,5.56c-1.78,1.63,1.04,2.82,2.53,6.09
		c1.49,3.27-2.67,8.98,1.34,7.24c4.01-1.74,6.54-3.08,8.47-2.48c1.93,0.59,2.38,9.12,6.69,9.91c4.31,0.79,7.87-0.11,6.09-2.26
		c-1.78-2.15-6.24-5.42-6.69-7.94s5.23-7.87,3.21-9.36c-2.02-1.49-4.4-0.3-4.54-2.38s3.3-1.78,4.54-2.82
		C494.31,209.17,494.16,207.09,494.16,207.09z"/>
	<path class="st6" d="M467.57,206.64c-2.14-0.54,2.82-6.69,0.74-6.98c-2.08-0.3-5.35,1.63-8.77,5.2c-3.42,3.57-6.69,4.9-8.32,5.79
		c-1.63,0.89-10.1,5.19-5.94,8.32c4.16,3.12-0.15,4.8,2.08,7.23s4.01-0.54,7.28-0.99c3.27-0.45,8.77,6.34,12.78,8.81
		c4.01,2.48,10.4,2.02,9.36-1.31c-1.04-3.34-8.62-2.6-10.1-7.2c-1.49-4.61,1.34-1.78,1.93-5.35c0.59-3.57,1.23-4.31,2.25-7.43
		C471.88,209.62,469.95,207.24,467.57,206.64z"/>
	<path class="st6" d="M447.96,207.68c0-3.16-0.94-6.54-3.81-6.54s-6.74,3.12-8.82,4.75c-2.08,1.63-3.71-0.3-1.63,4.61
		s-1.93,14.56,1.93,16.64c3.86,2.08,6.09,9.85,12.33,10.27c6.24,0.42,6.83-1.06,5.94-3.59s-10.3-4.46-9.75-7.13
		c0.54-2.67,2.62-4.01,0.99-5.65c-1.63-1.63-3.9-3.71-1.65-6.09C445.73,212.59,447.96,210.21,447.96,207.68z"/>
	<path class="st6" d="M428.05,206.2c-4.61-2.53-11.05-7.43-15.6-6.57c-8.02,1.52-15.15,5.18-17.83,11.32s-25.7,33.58-31.35,34.91
		c-5.65,1.34-18.72,12.48-21.99,15.15c-3.27,2.67-9.21,20.44-1.19,23.11c8.02,2.67,15.15,10.7,24.36,8.47
		c9.21-2.23,15.6-13.31,20.2-13.61s9.66-7.43,13.37-12.03c3.71-4.61-0.3-8.62,6.09-14.41c6.39-5.79,16.04-16.02,23.92-17.29
		c7.87-1.28,6.99-19.7,4.68-23.12C430.43,208.72,428.05,206.2,428.05,206.2z"/>
	<path class="st6" d="M376.55,287.61c0,0,13.03,31.48,13.03,39.96s1.39,14.68-4.35,20.79c-5.75,6.11-14.07,12.47-8.13,15.83
		c5.94,3.36,14.88,1.59,23.18,1.59c2.82,0-6.54,18.71,0,15.29c6.54-3.42,10.7-13.11,9.51-18.37s-12.87-41.37-17.43-54.51
		c-4.56-13.14-1.81-29.89-7.68-29.19S376.55,287.61,376.55,287.61z"/>
	<path class="st6" d="M385.22,372.96c-5.15-0.07-9.31-10.35-14.66-8.77c-5.35,1.57-16.78,15.97-30.44,24.01
		c-13.67,8.04-75.19,33.49-78.75,35.87c-3.57,2.38-0.55,11.3,6.58,10.11s94.74-37.19,104.84-42.22c10.1-5.04,17.38-10.5,16.79-13.29
		C388.98,375.86,385.22,372.96,385.22,372.96z"/>
	<path class="st6" d="M262.6,435.51c-4.48,0-6.34-1.5-7.13-6c-0.79-4.5-5.15-8.07-4.56-2.92c0.59,5.15-4.95,79.43-7.92,84.58
		s-9.95,7.92-10.82,14.56s-6.24,19.85-5.03,21.49c2.18,2.94,9.31-9.94,9.31-5.94c0,8.95-4.56,15.62,2.38,11.26
		c6.93-4.36,7.13-11.49,7.13-11.49s-1.56,12.25,0,13.47c2.77,2.18,8.32-12.28,10.1-14.23c1.23-1.35-4.16,19.21-1.19,14.26
		c2.97-4.95,10.3-5.94,7.73-15.45s-4.47-62.4,0.54-75.27c5.01-12.88,20.06-33.08,12.53-30.31
		C268.15,436.31,266.37,435.51,262.6,435.51z"/>
	<path class="st6" d="M392.52,276.36c0,0,51.73,53.09,53.29,61.42c1.56,8.33,4.95,9.43,0.43,16.49c-4.53,7.06-3.49,9.48,2.97,11.69
		c6.46,2.21,6.7-0.41,14.86-1.93c2.77-0.52,5.98,9.7,11.78,5.13s0.26-12.11-1.87-17.06c-2.13-4.95-30.15-36.84-37.04-48.93
		c-6.89-12.08-31.72-36.53-37.36-34.77S392.52,276.36,392.52,276.36z"/>
	<path class="st6" d="M458.21,373.99c-5.08,0.88-11.05-8.46-16.02-5.93c-4.97,2.53-24.36,27.98-36.32,38.39
		c-11.96,10.41-68.21,51.55-71.28,54.54c-3.07,2.99-1.26,12.73,5.53,10.25c6.79-2.48,89.55-60.29,98.55-67.1
		c9.01-6.8,25.96-22.71,24.86-25.35C462.43,376.15,458.21,373.99,458.21,373.99z"/>
	<path class="st6" d="M333.12,474.5c-5.23-0.45-4.8-5.91-8.02-9.16c-3.22-3.25-3.43,12.7,0,16.59c3.43,3.89,31.69,74,32.18,79.93
		s11.59,4.95,14.66,10.89c3.07,5.95,21.05,6.87,22.98,7.53c3.47,1.17-4.2-11.4-1.92-8.12c5.11,7.35,6.68,6.34,10.44,7.92
		c7.55,3.18-2.97-12.38-2.97-12.38s6.54,10.73,7.78,9.18c4.3-5.35-4.47-8.25-4.12-10.86c0.24-1.81,8.8,10.31,8.42,4.55
		c-0.38-5.76-3.96-7.13-8.12-8.91c-4.73-2.03-18.14,3.63-30.5-7.33c-11.31-10.02-20.95-37.82-22.5-44.24
		c-3.23-13.43-1.18-45.03-5.78-38.46C341.05,478.21,336.87,474.82,333.12,474.5z"/>
	<path class="st6" d="M389.62,213.18c0,0-4.8-1.78-11.48,0c-6.69,1.78-13.37,8.02-15.6,9.81s3.12,2.89,7.13,4.56
		s11.59-1.89,12.48-3.67S389.62,213.18,389.62,213.18z"/>
	<path class="st6" d="M368.78,212.39c-4.9,0.35-14.71,5.69-16.49,6.58c-1.78,0.9-3.12,10.01,0,9.02
		c3.12-0.99,14.26-8.55,16.49-11.45S368.78,212.39,368.78,212.39z"/>
	<path class="st6" d="M341.64,217.62c-2.97,1.36-10.7,0.29-8.12,2.61c2.58,2.32,3.57,16.06,6.34,15.03
		c2.77-1.03,5.15-4.99,6.93-5.98C348.57,228.28,344.61,216.26,341.64,217.62z"/>
	<path class="st6" d="M334.51,232.84c-2.97-7.33-1.58-12.88-3.76-10.89c-2.18,1.98-0.79,8.32-5.35,8.52s-7.53,4.04-6.34,4.79
		s2.58,6.1,6.73,7.29c4.16,1.19,5.11-3.38,7.21-5.06C335.1,235.81,334.51,232.84,334.51,232.84z"/>
	<path class="st6" d="M316.48,237.49c-3.69,1.13-7.73,1.09-8.52,3.27s1.98,7.73,4.26,9.9c2.28,2.18,5.45,4.95,5.25,1.39
		c-0.2-3.57-1.91-4.06,1.32-5.8S319.18,236.66,316.48,237.49z"/>
	<path class="st6" d="M312.32,256.02c0,0-3.96,0.79-5.35,3.37c-1.39,2.58,0.4,8.32-1.58,8.72c-1.98,0.4-3.37-4.95-6.73-6.04
		c-3.37-1.09-2.18-3.86,1.19-6.04c3.37-2.18,4.13-8.16,4.64-10.42c0.51-2.26,2.09,0.32,2.49,2.1c0.4,1.78,5.35,3.82,5.35,6.07
		C312.32,256.02,312.32,256.02,312.32,256.02z"/>
	<path class="st6" d="M296.65,264.53c-2.54,0.31-3.54-0.16-4.53,3.59s-3.17,5.92-5.15,7.9c-1.98,1.98-8.32,6.93-5.55,8.32
		c2.77,1.39,9.11,6.93,9.51,2.77s-0.2-9.71,2.38-11.69c2.58-1.98,7.92-3.96,7.92-5.55C301.23,268.3,299.15,264.23,296.65,264.53z"/>
	<path class="st6" d="M278.85,286.13c0,0-1.78,5.74-3.37,8.52c-1.58,2.77-7.73,10.1-7.53,12.48c0.2,2.38,1.78,8.72,5.44,8.12
		c3.67-0.59,1.29-6.34,4.46-11.89c3.17-5.55,6.73-8.07,8.72-10.37s-3.96-6.86-5.84-6.86C278.85,286.13,278.85,286.13,278.85,286.13z
		"/>
	<path class="st6" d="M265.77,311.68c0.99,1.39,3.57,5.15,4.95,5.15s5.35,0.2,3.96,1.39c-1.39,1.19-13.07,7.87-14.06,11.96
		c-0.99,4.09-2.09,7.85-4.02,8.25c-1.93,0.4-4.2-1.39-4.25-3.57s0.04-2.72,4.25-9.78c4.21-7.06,6.33-12.41,7.06-13.4
		S265.77,311.68,265.77,311.68z"/>
	<path class="st6" d="M250.32,338.48c-2.09-3.04-4.75-0.34-4.75,0s-0.99,12.03-3.96,14.4c-2.97,2.38-10.7,5.94-11.89,9.31
		s-10.89,23.57-14.06,24.17c-3.17,0.59-1.39,6.14,1.39,5.55c2.77-0.59,5.78-5.94,9.92-10.89c4.14-4.95,8.5-12.08,10.87-12.28
		s-0.4-6.34,4.16-10.7s13.56-15.25,14.6-16.64C257.65,340,251.15,339.68,250.32,338.48z"/>
	<path class="st6" d="M216.45,396.26c1.58-2.97-3.96-7.92-5.35-5.35c-1.39,2.58-7.53,13.87-10.5,16.64c-2.97,2.77-2.18,6.93,0,8.72
		c2.18,1.78,6.14-7.92,10.5-11.69C215.46,400.82,216.45,396.26,216.45,396.26z"/>
	<path class="st6" d="M197.83,422.21c-0.79-4.16-0.59-9.9-2.58-8.12c-1.98,1.78-6.14,6.28-7.73,9.97s-18.03,14.79-14.66,18.15
		s5.15,4.75,8.12,1.19C183.96,439.84,197.83,422.21,197.83,422.21z"/>
	<path class="st6" d="M175.25,449.74c-1.78-2.97-3.17-7.73-4.16-5.94c-0.99,1.78-12.88,21-11.49,23.77c1.39,2.77,2.77,2.38,3.57,0
		C163.96,465.19,175.25,449.74,175.25,449.74z"/>
</g>
<g id="Números">
	<rect x="809.02" y="64.36" class="st1" width="33.18" height="38.07"/>
	<text transform="matrix(1 0 0 1 809.0163 99.8762)" class="st0 st7 st8">1</text>
	<rect x="61.67" y="396.2" class="st1" width="33.18" height="38.07"/>
	<text transform="matrix(1 0 0 1 61.6655 431.7166)" class="st0 st7 st8">2</text>
	<rect x="647.66" y="568.41" class="st1" width="33.18" height="38.07"/>
	<text transform="matrix(1 0 0 1 647.665 603.9344)" class="st0 st7 st8">3</text>
	<rect x="228.45" y="776.36" class="st1" width="79" height="125.24"/>
	<text transform="matrix(1 0 0 1 228.4447 887.3596)" class="st0 st7 st9">1</text>
	<rect x="228.45" y="959.66" class="st1" width="85.58" height="125.24"/>
	<text transform="matrix(1 0 0 1 228.4447 1070.6621)" class="st0 st7 st9">2</text>
	<rect x="228.45" y="1158.07" class="st1" width="85.58" height="125.24"/>
	<text transform="matrix(1 0 0 1 228.4447 1269.0684)" class="st0 st7 st9">3</text>
</g>
</svg>
