<svg id="Layer_1" data-name="Layer 1" xmlns="http://www.w3.org/2000/svg" xmlns:xlink="http://www.w3.org/1999/xlink" viewBox="0 0 1920 1403.05"><defs><style>.cls-1{fill:none;}.cls-2,.cls-3,.cls-4,.cls-5{isolation:isolate;}.cls-3{fill:#699;}.cls-3,.cls-4{opacity:0.6;}.cls-4{fill:#c66;}.cls-5{font-size:25px;font-family:Lexend-Thin, Lexend;font-weight:200;}.cls-6{letter-spacing:-0.02em;}.cls-7{letter-spacing:0em;}.cls-8{letter-spacing:-0.01em;}.cls-9{letter-spacing:-0.01em;}.cls-10{letter-spacing:-0.01em;}.cls-11{letter-spacing:0.02em;}.cls-12{letter-spacing:-0.02em;}.cls-13{letter-spacing:0em;}.cls-14{letter-spacing:-0.02em;}.cls-15{letter-spacing:0em;}.cls-16{letter-spacing:-0.02em;}</style></defs><g id="Fondo"><rect class="cls-1" width="1920" height="1245.45"/></g><g id="Imágen"><image id="anatomiafoto" class="cls-2" width="2732" height="2048" transform="translate(83.7 89.26) scale(0.64)" xlink:href="img/Zorro1.png"/></g><g id="Huesos"><path class="cls-3" d="M1349.43,568.34c-.81-4.79-8.26-2.36-10.64-11.55s6.55-8.53,7.57-14-24.27-59.12-49.06-74.11c-16-9.65-32-13.47-51.36-6.57-19.07,6.81-38.81,30.3-40.51,36.09s-2.72,20.77,9.19,22.47,66.72,22.13,75.23,30.64,25.53,16.34,27.91,21.11,1,10.21,5.11,10.21,4.09-9.53,11.23-10.55S1350.87,576.9,1349.43,568.34Z"/><path class="cls-3" d="M1034.19,452.43s-32.68,9.7-47,31.15-29.11,51.57-29.62,72.51,8.17,41.87,13.79,48.51,20.43,29.11,28.6,35.23-10.72-22-14.81-28.6-23-30.64-19.4-51.06,15.81-63.83,30.12-74.55,22.48-23.36,40.35-27S1042.36,452.43,1034.19,452.43Z"/><path class="cls-3" d="M1068.4,458.62s-14.2,2.33-22.8,6.06c-14.41,6.26-35.41,24-41,37.28s-17.36,42.89-19.91,62.81-.51,29.11,0,37.79,14.3,29.62,19.4,32.68-9.19-15.32-10.21-26-2.4-56.17,7.74-77.62,25.06-40.74,39.31-50.87a80.81,80.81,0,0,1,37.21-14C1089.34,465.7,1076,457.15,1068.4,458.62Z"/><path class="cls-3" d="M1096.15,464.51s-28.94,8.85-40.85,22.13a215.81,215.81,0,0,0-27.91,39.49c-7.49,13.28-13.62,44.6-16,54.81s-2.38,33.7,0,43.57,5.79,20.77,15.66,29.28,32,17.36,32.34,18.38a38.07,38.07,0,0,0-11.23-11.91c-8.51-5.78-25.53-17-28.26-30.64s.27-50.38,5.41-67.4,28.63-66,41.57-75.23,29.28-6.13,32.68-9.87S1100.92,462.9,1096.15,464.51Z"/><path class="cls-3" d="M1121,467.91s-5.45,4.77-10.21,6.47-28.26,14.3-38.13,31-26.21,65.7-29.62,77.28-11.91,43.61-3.4,58.06,27.91,30.79,34.38,33.86,10.89,5.11,15.32,6.47-13.62-7.83-20.09-14.64-25.52-27.57-23.65-47.32,23.05-89.19,32.88-102.13,25.83-39.15,36.73-38.47,18.38,0,16.68-3.06S1123.83,465.68,1121,467.91Z"/><path class="cls-3" d="M1147.21,472.34A51.42,51.42,0,0,0,1119,488c-12.6,13.62-32.68,53.45-38.81,77.62s-15.32,46-8.51,67.06,30,48.34,44.26,51.4a195.75,195.75,0,0,0,34,3.74c3.74,0-35.74-9-42.89-15.56s-29.28-31.76-30.3-45,15.66-71.15,21.11-85.79,17.36-43.23,32.68-52.09,20.77-3.74,22.13-8.85S1152.66,474.38,1147.21,472.34Z"/><path class="cls-3" d="M1177.51,480.51c-7.49,0-21.45-3.74-31.32,10.55s-32.68,51.06-38.13,89S1097.85,632,1106,648s19.79,25.87,33.55,30,16.15,7.15,21.26,6.47,2.34-4.77-7.68-9.53-33.17-11.57-37.26-24.51-2-55.83,3.74-73.53,18-65.7,27.91-76.94,22.13-5.45,30-9.53,12.94-1.7,9.53-4.77S1177.51,480.51,1177.51,480.51Z"/><path class="cls-3" d="M1202.36,482.21s-1.7-5.79-3.74-4.77-2,1.7-4.43,4.77-15,9.19-26.89,36.77-23.15,70.13-24.51,84.77-7.15,12.6-4.43,25.53-3.06,21.79,13.28,31.66,27.91,17,34.38,17.36,15.32-6,15.32-6-28.26-1.8-40.17-12-12.29-40.51-8-61.28,16.19-85.79,30.49-96.34,22.47-9.53,24.85-13.62S1206.79,483.23,1202.36,482.21Z"/><path class="cls-3" d="M1202.7,505.36c-3.4,9.87-12.15,25.87-14.59,30.64s-17.09,43.23-14.7,71.15-6.12,31.66,10.9,45.62,39.15,15.66,41.87,15.32,5.79-4.43-2.38-6.81-38.13-6.81-39.83-29.62,1-72.83,8.17-85.1,17-28.1,17-28.1"/><path class="cls-3" d="M1222.26,522.52c-4.58,7.35-9.31,20-13.07,44.12s-10.58,66.09,2.7,76.62,20.43,16,31.32,15,15-1,14.3-3.74-6.47,1.36-15.32-1-22.47-7.15-24.85-21.79-4.43-57.19,1-70.47S1234,526.27,1234,526.27"/><path class="cls-3" d="M1243.73,529.73c-2.22,3.55-12.7,34.23-12.91,57s1.16,40.15,14.77,48.83,24.17,12.43,27.91,9.36,8.31-8.85,3.48-9.36-13.72,4.94-22,0-17.86-28.05-14.45-48.83,3.37-43.48,14.45-52.73"/><path class="cls-3" d="M1262.82,537.22S1251,553,1250.36,566.64s-2.38,49.36,9.53,57.53,22.47,10.89,29.62,9.53,17.7-8.17,7.49-8.51-20.43,7.15-29.62-8.51-13.62-46.64-6.13-58.21,11.11-17.08,11.11-17.08"/><path class="cls-3" d="M1279.08,544.61c-2.16,4.67-9,24.75-7.61,35.48s.68,26.38,9.19,30.13,22.47,7.83,30,4.77,8.51-8.85,0-9.87-17-2.38-21.79-8.85-7.49-21.79-6.13-31a41.9,41.9,0,0,1,5.42-15.4"/><path class="cls-3" d="M1298.82,558.48c-3.53,5.78-7.27,20.95-2.51,27.15s14.4,13.69,20.3,14.37,14.08-5.11,10-5.79-10,.94-15.72-3.79-11.44-19-4.32-26.85"/><path class="cls-3" d="M1345,577.82c9.66,2.2,8.85,6.29,1.36,22.24s-4.43,21.39-22.81,31.6-27.23,28.33-48,36.46-70.47,30.26-89.19,37.75-11.91,10.21-9.87,17.7,3.54,14-3.33,15.66-17.47,0-20-7.83-4.92-14,2.57-20.77a106.59,106.59,0,0,1,40.51-22.81c18.72-5.45,60.58-22.47,75.06-34.72s33.75-24.85,39.6-32.34S1329.35,602,1330,597.61s-8.85-2.83-5.11-9.76S1335.81,575.72,1345,577.82Z"/><path class="cls-3" d="M1143.47,705.87c-3.6-4.91-10.55-3.74-15,0s-12.45,12.6,3.65,35.74,28.35,41.53,35.16,65.7,14.64,59.57,15,77.28,45.79,124.54,48,135.4c3.06,15.06,12.75,36.41,25.53,59.23,7.15,12.77,15,21.53,25.87,23.57s11.23,10.21,10.89,2-12.94-13.62-12.94-13.62,17.36,6.13,26.21,4.09,12.6,14.27,15,13.09,0-16.5,0-16.5,15.32,11.23,15.32,14,6.47-6.13,6.13-7.49,14,4.09,1.7-5.11-26.69-8.69-51.06-15.32c-36.6-10-33.84-49.4-39.3-60.3s-15.08-49-20.53-58.17-10.72-31.06-9.7-39.57-24.43-96.6-31.57-116-16-35.74-11.91-44.94,3.06-14,3.4-16.34-5.79,1.7-15,.68-23.83-3.06-25.19-14S1147.21,711,1143.47,705.87Z"/><path class="cls-3" d="M1341.94,520.63c6.47-3.35,1.31-9.48,7.64-11.18s11.77-6.81,8-8.51-13.28,2.72-15.66,0,4.43-5.45,3.06-11.57-11.91-15.88-12.94-21.9,4.09-16.57,2.38-23-4.77-7.15-8.85-5.45-6.13,18.73-5.11,25.36,9.69,13.1,7.23,17.53a71.1,71.1,0,0,1-7.49,10.06"/><path class="cls-3" d="M1314.33,484.34c-2.92-3.38-4.39-8.93-5.42-20s2-24.23-5.79-26.16-5.79,2.84-4.77,9.31-3.17,20-3.17,20"/><path class="cls-3" d="M1286.46,463.13s1-16.66-1.71-21.08-6.81-3.74-9.19-2,3,20.38,1.43,20"/><path class="cls-3" d="M1261.94,458.72s1.36-8.51,0-13.62-4.06-11.47-10.54-6.92-1.35,14.75,0,17.48a5,5,0,0,1,0,4.78"/><path class="cls-3" d="M1245.94,462.13s-13.28-12.6-12.6-18,0-6.36-2.54-5.9-5.64-1.93-7,2.84.34,6.81,3.74,11.4,7.13,11.39,7.08,13.45-2.62,3.8-2.62,3.8"/><path class="cls-3" d="M1233.85,463.13s-21.58-9.51-24.66-16.32.66-6.13-5.13-5.45-6.56,3.78-2.94,9.55,15.27,21.43,15.27,21.43-27.65-29.08-33.77-31.39-11.23-3.13-11.23,0,17.12,14.92,16.73,20.09-.39,9.26-5.16,11.3-1.61,9.19,1.24,11.23,7.71.76,7.71.76"/><path class="cls-3" d="M1187.85,464.34s-24.64-13.45-29.75-19.58-12.26-12-15.32-7,22.13,21.71,19.06,24.06-14.18,3.83-11.17,7.86,15.26,9.14,20.7,6.07S1186.28,474.39,1187.85,464.34Z"/><path class="cls-3" d="M1159.28,463.13s-7.21.1-14.4-9.3-12-19.16-16.05-15.64,1.16,9.05,3.31,15.64,7.51,4.43,5.51,7.22-7.18-.27-10.33,3.3,2.3,8,2.3,8,17.7.36,19.64-2.67"/><path class="cls-3" d="M1129.87,448.53c-1.19-2.47-5.12-10.87-9.55-10.55s-1.36,9.2-2.38,12.93-9.19,7.77-8.85,12.22S1118,468,1121,467.92a10,10,0,0,0,5.49-2.12,17,17,0,0,0,3.38-7.17A47.14,47.14,0,0,0,1129.87,448.53Z"/><path class="cls-3" d="M1111.19,435.88s.62-2.08-4.83,0-7.15,9.22-11.91,9.22-8.51,10-4.09,13.34,7.91,4.91,11.28,2.59,11.87-5.35,11.87-10.13S1111.19,435.88,1111.19,435.88Z"/><path class="cls-3" d="M1092.06,443.06c3.18-3.5.68-4.43,2.72-9.87s-8-8.51-12.36-5.45-16.23,9.87-16.57,15.32,3.74,6.15,10.21,9.88,2.36-.95,8-4.39S1088.66,446.81,1092.06,443.06Z"/><path class="cls-3" d="M1071,426.53c-2.94-2.32-5.88,8.84-15.54,8.43s-30.08-2.73-33.48,1.67-5.11,10.57,1.36,11.91,24.85,10.07,33.36,7.75,7.15-7,4.09-7.73-2.38-5.65,2.38-9.65S1076.74,431.1,1071,426.53Z"/><path class="cls-3" d="M1061.09,417.53c-1.47.92-6.81,5.79-12.94,5.79s-16.34,3.06-17,4.77-.18,6,1.79,5.93,17.95,1.69,22.51,1,12.43-5.85,13.81-10.28S1066.87,413.93,1061.09,417.53Z"/><path class="cls-3" d="M1029.09,419.91c-5.76-2.12-14.3,6.34-21.11,5.89s-21.79-3.4-23.15-2.94,5.11,9.78,6.13,12.09-8.51,8.79-1,11.51,14.45,10.21,16.93,6,5.54-3.89,5.54-3.89,3.15,6.83,6.51,5.79-12-12.44-6.51-15.42,10.82-4.34,12.9-7.75S1035.55,422.3,1029.09,419.91Z"/><path class="cls-3" d="M993.68,416.47c2.25-1,15-.64,18.38-4s8.44-5.45,13.24-2.72,4.35,4.45,2.42,7.21-13.79,11.27-18.13,8.84-29.23.29-25-4.82S987.89,419.15,993.68,416.47Z"/><path class="cls-3" d="M1358.82,454.9s6-7.07,0-12.69-12.12-7.66-12.63,0-1.53,18.22-4.6,22.13-2.43,10.89,8,15.06.09,6.72,1.17,9.79,6.18,12.77,14.35,3.06,14.81-14.3,19.4-15.58-2.55-6-6.64-12.34,1-16.13-3.57-15.81S1364.3,458.4,1358.82,454.9Z"/><path class="cls-3" d="M1383.47,453c4.6,4.59-3.66,14.06,2.51,16.73s3.62-9.34,10.77-15.85,18.89-13.59,13.79-17.2-14.07.48-12.91-7.69-10.16-11.23-11.65-4.6-2.51,5.11-8.13,0-10.21-8.39-10.72,2.19-10.72,12.06-4.15,18.27,12.32-1,15.89,0S1383.47,453,1383.47,453Z"/><path class="cls-3" d="M1426.36,415.15c5.52-7.59-2.55-23-7.66-31.66s-11.74-6.13-16.85,0-10.2,18.38-15.57,20.94-8.94,10.21-6.39,10.72,14.81,1.14,17.87,4.4-1.35,7.35,4.94,8.88,3.68,7.15,9.07,4.09-1.76-12.14,4.37-13S1422.28,420.77,1426.36,415.15Z"/><path class="cls-3" d="M1443.72,371.74c-6.64-2-13.14,1.53-15.51,3.57s-11,2.55-7.47,5.11S1436.57,406,1434,409s-.51,11.74,5.11,3.06,13.79-12.18,14.81-18.6-2.55-12-6.64-15.59S1443.72,371.74,1443.72,371.74Z"/><path class="cls-3" d="M1458.53,323.23c-4.49,7.29-.16,12.77-4.42,20.94s-9.88,19.91-6.3,22.47,6.64,7.66,10.72,15.83-7.66,18.38,6.64,19.91,23,8.68,28.6-4.6,2.55,8.17,2.55,10.72-15.32,3.18-12.26,11,16.34,18.49,20.43,29-3.06,24.81,25.53,39.62,64.34,39.32,105.19,38.3,62.3-11.57,71-21.11-15.83-19.91-15.83-26,6.64-14.26-2-16.28-35.74-19.89-43.4-22.7-26-9.84-30.64-20.88-11.74-29.42-19.4-38.61-56.68-52.6-71.49-57.7-41.87-9.19-50-7.66S1462.62,316.6,1458.53,323.23Z"/><path class="cls-3" d="M987.21,407c-2,3.32-10.47,6.37-9.19,10.33s7.44,12.9,5.38,16.47-3.34,20.68-9.21,16.34-11.23-16.68-12.77-15-2.55,2.71-6.38,6.29-14.81-6.7-17.87-12.54-7.66-7.8-7.15-12.44-6.38-5.91-6.13-9.49-2.81-10.47,8.17-9.45,11.79-3.32,23.39-5.36,16.7,1.53,14.15,5.11-7.66,9.7-3.06,12.26,9.7-3.06,15.57-4.85S987.21,407,987.21,407Z"/><path class="cls-3" d="M930.53,392.68c.74-4.05-6.38-4.09-9.7-4.09s9.7-3.32,4.85-8.43-10.47-4.34-15.06-3.83-7.15,8.06-13.79,8-12.51-1.09-13.28,2.74-8.68,2.13-8.94,4.51,8.43,10.3,8.17,15.15,4.34,10.89,12.77,12.85,11,13.36,17.11,15.57,7.66,1.7,6.13-6.72,8.34-7.42,6.72-11.11-9.79-6.18-9-11.19,4.77-10.37,9-10.63S930,395.49,930.53,392.68Z"/><path class="cls-3" d="M876.66,380.17c-1.44-.16-8.43,1.53-7.15-1.79s9.45-7.4,8.43-10.47-8.17-8.68-15.83-4.34-13.53,11-17.87,12.4-7.66,5-10.21,6.75,4.09,2,4.09,7.15-9.34,11-4.67,14.3,10,2.16,18.71,4.27,3.57,8.86,13,12.76,16.34,7.07,11.74,0,.51-6.45.51-12.76-2.81-6.57-5.11-10.4,8.43-8.43,8.17-13S878.67,380.4,876.66,380.17Z"/><path class="cls-3" d="M834,373.28c-1.79-2.55-13-.77-8.68-4.85s10-3.57,6.79-7.4-8.58-5.36-14.19-1.28S812.83,370,807.47,372s-10.72,2.33-10.72,4,1.28,6.75-1.79,9.56,1.79,4.85,4.34,10.47-4.6,15.43,2.3,12.44,11.23-5.29,14.55-4.27,4.09,15.68,11.49,17,13.53-.19,10.47-3.89-10.72-9.31-11.49-13.65,9-13.53,5.51-16.09-7.55-.51-7.81-4.09,5.66-3.06,7.81-4.85S834,373.28,834,373.28Z"/><path class="cls-3" d="M788.32,372.51c-3.68-.92,4.85-11.49,1.28-12s-9.19,2.81-15.06,8.94-11.49,8.43-14.3,10S742.88,388.33,750,393.7s-.26,8.25,3.57,12.42,6.89-.93,12.51-1.69,15.06,10.89,22,15.15,17.87,3.48,16.09-2.26-14.81-4.46-17.36-12.38,2.3-3.06,3.32-9.19,2.12-7.4,3.87-12.77A7.9,7.9,0,0,0,788.32,372.51Z"/><path class="cls-3" d="M754.62,374.3c0-5.43-1.61-11.23-6.55-11.23s-11.58,5.36-15.15,8.17-6.38-.51-2.81,7.91-3.32,25,3.32,28.6,10.47,16.93,21.19,17.66,11.74-1.83,10.21-6.17-17.7-7.66-16.76-12.26,4.51-6.89,1.7-9.7-6.71-6.38-2.84-10.47S754.62,378.64,754.62,374.3Z"/><path class="cls-3" d="M720.4,371.74c-7.91-4.34-19-12.76-26.81-11.29-13.79,2.6-26,8.89-30.64,19.46s-44.17,57.7-53.87,60-32.17,21.45-37.79,26-15.83,35.13-2,39.72,26,18.38,41.87,14.55,26.81-22.87,34.72-23.38,16.6-12.77,23-20.68-.51-14.81,10.47-24.77,27.57-27.52,41.11-29.72,12-33.85,8.05-39.73A91.23,91.23,0,0,0,720.4,371.74Z"/><path class="cls-3" d="M631.89,511.66s22.39,54.11,22.39,68.67,2.4,25.22-7.48,35.72-24.18,21.44-14,27.2S658.41,646,672.67,646c4.85,0-11.23,32.16,0,26.28S691.05,649.74,689,640.7s-22.12-71.1-30-93.69-3.11-51.36-13.2-50.16S631.89,511.66,631.89,511.66Z"/><path class="cls-3" d="M646.79,658.33c-8.86-.12-16-17.78-25.2-15.08s-28.83,27.44-52.32,41.27-129.21,57.56-135.34,61.64-.94,19.41,11.31,17.37S608.06,699.62,625.42,691s29.87-18,28.85-22.85S646.79,658.33,646.79,658.33Z"/><path class="cls-3" d="M436.06,765.84c-7.7,0-10.89-2.57-12.26-10.31s-8.85-13.86-7.83-5S407.46,887,402.35,895.88s-17.1,13.62-18.59,25S373,955,375.12,957.84c3.74,5,16-17.08,16-10.21,0,15.38-7.83,26.84,4.09,19.35a25.92,25.92,0,0,0,12.26-19.74s-2.68,21,0,23.15c4.77,3.74,14.3-21.11,17.36-24.45,2.12-2.32-7.15,33-2,24.51s17.7-10.21,13.28-26.55-7.68-107.23.93-129.36,34.48-56.85,21.54-52.09S442.53,765.84,436.06,765.84Z"/><path class="cls-3" d="M659.33,492.32s88.9,91.24,91.58,105.55,8.52,16.21.73,28.34-6,16.29,5.11,20.09,11.52-.71,25.53-3.32c4.77-.89,10.28,16.66,20.24,8.82S803,631,799.3,622.48s-51.81-63.32-63.66-84.09-54.51-62.78-64.2-59.75S659.33,492.32,659.33,492.32Z"/><path class="cls-3" d="M772.23,660.1c-8.73,1.51-19-14.54-27.54-10.2s-41.87,48.09-62.42,66S565,804.47,559.77,809.61s-2.17,21.87,9.51,17.62S723.17,723.61,738.65,711.92s44.62-39,42.73-43.57S772.23,660.1,772.23,660.1Z"/><path class="cls-3" d="M557.26,832.85c-9-.77-8.25-10.16-13.78-15.74s-5.89,21.82,0,28.51S597.93,972.8,598.79,983s19.91,8.51,25.19,18.72,36.17,11.81,39.49,12.94c6,2-7.22-19.6-3.31-14,8.77,12.64,11.48,10.89,18,13.62,13,5.46-5.11-21.28-5.11-21.28s11.24,18.44,13.38,15.78c7.39-9.19-7.68-14.17-7.07-18.67.42-3.11,15.13,17.73,14.47,7.82s-6.81-12.26-14-15.32c-8.13-3.48-31.17,6.23-52.43-12.6-19.44-17.22-36-65-38.66-76-5.55-23.08-2-77.39-9.93-66.1S563.7,833.4,557.26,832.85Z"/><path class="cls-3" d="M654.35,383.74s-8.25-3.06-19.74,0-23,13.79-26.81,16.85,5.36,5,12.26,7.84,19.91-3.25,21.45-6.31S654.35,383.74,654.35,383.74Z"/><path class="cls-3" d="M618.53,382.38c-8.43.6-25.28,9.77-28.34,11.31s-5.36,17.2,0,15.5,24.51-14.69,28.34-19.69S618.53,382.38,618.53,382.38Z"/><path class="cls-3" d="M571.89,391.37c-5.11,2.33-18.38.5-14,4.48s6.13,27.6,10.89,25.83,8.85-8.58,11.91-10.28S577,389,571.89,391.37Z"/><path class="cls-3" d="M559.64,417.53c-5.11-12.6-2.72-22.13-6.47-18.72s-1.36,14.3-9.19,14.64-12.94,6.94-10.89,8.24,4.43,10.49,11.57,12.53,8.78-5.8,12.39-8.69S559.64,417.53,559.64,417.53Z"/><path class="cls-3" d="M528.66,425.52c-6.35,2-13.28,1.88-14.64,5.63s3.4,13.28,7.32,17,9.36,8.51,9,2.38-3.29-7,2.27-10S533.29,424.1,528.66,425.52Z"/><path class="cls-3" d="M521.51,457.36s-6.81,1.36-9.19,5.79.68,14.3-2.72,15-5.79-8.51-11.57-10.38-3.74-6.64,2-10.38,7.1-14,8-17.9,3.6.54,4.28,3.61,9.19,6.56,9.19,10.43S521.51,457.36,521.51,457.36Z"/><path class="cls-3" d="M494.57,472c-4.36.53-6.08-.27-7.78,6.16s-5.45,10.18-8.85,13.58-14.3,11.91-9.53,14.3,15.66,11.91,16.34,4.77-.34-16.68,4.09-20.09,13.62-6.81,13.62-9.53S498.88,471.48,494.57,472Z"/><path class="cls-3" d="M464,509.11s-3.06,9.87-5.79,14.64-13.28,17.36-12.94,21.45,3.06,15,9.36,14,2.22-10.89,7.66-20.43,11.57-13.86,15-17.83-6.8-11.79-10-11.79Z"/><path class="cls-3" d="M441.51,553c1.7,2.38,6.13,8.85,8.51,8.85s9.19.34,6.81,2.38-22.47,13.53-24.17,20.55-3.59,13.49-6.9,14.17-7.21-2.38-7.3-6.13.06-4.67,7.3-16.8,10.88-21.32,12.13-23S441.51,553,441.51,553Z"/><path class="cls-3" d="M415,599.07c-3.59-5.23-8.17-.59-8.17,0s-1.7,20.67-6.81,24.76-18.38,10.21-20.43,16-18.72,40.51-24.17,41.53-2.38,10.55,2.38,9.53,9.94-10.21,17.06-18.72,14.6-20.77,18.69-21.11-.68-10.89,7.15-18.38,23.31-26.21,25.1-28.6S416.37,601.14,415,599.07Z"/><path class="cls-3" d="M356.74,698.38c2.72-5.11-6.81-13.62-9.19-9.19s-12.94,23.83-18,28.6a10.08,10.08,0,0,0,0,15c3.74,3.06,10.55-13.62,18-20.09A29.08,29.08,0,0,0,356.74,698.38Z"/><path class="cls-3" d="M324.74,743c-1.36-7.15-1-17-4.43-14S309.76,739.81,307,746.16s-31,25.41-25.19,31.2,8.85,8.17,14,2S324.74,743,324.74,743Z"/><path class="cls-3" d="M285.94,790.3c-3.06-5.11-5.45-13.28-7.15-10.21s-22.13,36.09-19.74,40.85,4.77,4.09,6.13,0S285.94,790.3,285.94,790.3Z"/></g><g id="Círculos_e_info" data-name="Círculos e info"><circle class="cls-4" cx="1533.94" cy="314.72" r="114.04"/><circle class="cls-4" cx="1310.89" cy="1039.32" r="114.04"/><circle class="cls-4" cx="238.44" cy="824.26" r="114.04"/><rect class="cls-1" x="1474.87" y="96.51" width="384.51" height="87.32"/><g class="cls-2"><text class="cls-5" transform="translate(1474.87 115.01)">Sus o<tspan class="cls-6" x="61.97" y="0">r</tspan><tspan class="cls-7" x="69.2" y="0">ejas son dos </tspan><tspan class="cls-8" x="217.92" y="0">t</tspan><tspan x="226.55" y="0">e</tspan><tspan class="cls-6" x="240.17" y="0">r</tspan><tspan x="247.4" y="0">cios de </tspan><tspan class="cls-9" x="334.67" y="0">l</tspan><tspan x="338.57" y="0">a </tspan></text><text class="cls-5" transform="translate(1474.87 145.01)"><tspan class="cls-10">l</tspan><tspan class="cls-7" x="3.9" y="0">ongitud de </tspan><tspan class="cls-10" x="131.95" y="0">l</tspan><tspan x="135.85" y="0">a cabe</tspan><tspan class="cls-9" x="214.77" y="0">z</tspan><tspan x="225.25" y="0">a del </tspan></text><text class="cls-5" transform="translate(1474.87 175.01)">pequeño <tspan class="cls-9" x="106.92" y="0">z</tspan><tspan x="117.4" y="0">or</tspan><tspan class="cls-6" x="140.55" y="0">r</tspan><tspan x="147.77" y="0">o</tspan></text></g><rect class="cls-1" x="1455.72" y="1047.83" width="384.51" height="87.32"/><g class="cls-2"><text class="cls-5" transform="translate(1455.72 1066.33)">Tiene manchas <tspan class="cls-6" x="175.22" y="0">r</tspan><tspan class="cls-7" x="182.45" y="0">oji</tspan><tspan class="cls-10" x="205.62" y="0">z</tspan><tspan x="216.1" y="0">as en </tspan><tspan class="cls-10" x="284.27" y="0">l</tspan><tspan x="288.17" y="0">a pa</tspan><tspan class="cls-11" x="340.32" y="0">r</tspan><tspan class="cls-8" x="348.59" y="0">t</tspan><tspan x="357.22" y="0">e </tspan></text><text class="cls-5" transform="translate(1455.72 1096.33)">in<tspan class="cls-12" x="17.57" y="0">f</tspan><tspan class="cls-7" x="25.57" y="0">erior de sus cuat</tspan><tspan class="cls-6" x="211.7" y="0">r</tspan><tspan class="cls-7" x="218.92" y="0">o pa</tspan><tspan class="cls-8" x="271.4" y="0">t</tspan><tspan x="280.02" y="0">as </tspan></text></g><rect class="cls-1" x="93.68" y="1026.96" width="384.51" height="87.32"/><g class="cls-2"><text class="cls-5" transform="translate(93.68 1045.46)">En el <tspan class="cls-13" x="59.45" y="0">e</tspan><tspan x="73" y="0">xt</tspan><tspan class="cls-6" x="93.62" y="0">r</tspan><tspan x="100.85" y="0">eno de su co</tspan><tspan class="cls-9" x="247.05" y="0">l</tspan><tspan x="250.95" y="0">or posee </tspan></text><text class="cls-5" transform="translate(93.68 1075.46)">un gris más oscu<tspan class="cls-14" x="189.75" y="0">r</tspan><tspan x="196.97" y="0">o</tspan></text></g><rect class="cls-1" x="48.66" y="41.36" width="432" height="81.19"/><text class="cls-5" transform="translate(48.66 59.86)">*El esque<tspan class="cls-10" x="103.3" y="0">l</tspan><tspan x="107.2" y="0">e</tspan><tspan class="cls-8" x="120.82" y="0">t</tspan><tspan class="cls-15" x="129.45" y="0">o apa</tspan><tspan class="cls-6" x="196.97" y="0">r</tspan><tspan x="204.2" y="0">ecería con un h</tspan><tspan class="cls-16" x="375.02" y="0">ov</tspan><tspan x="401.32" y="0">er</tspan></text></g></svg>