<?xml version="1.0" encoding="utf-8"?>
<!-- Generator: Adobe Illustrator 25.2.3, SVG Export Plug-In . SVG Version: 6.00 Build 0)  -->
<svg version="1.1" xmlns="http://www.w3.org/2000/svg" xmlns:xlink="http://www.w3.org/1999/xlink" x="0px" y="0px"
	 viewBox="0 0 1920 1245.45" style="enable-background:new 0 0 1920 1245.45;" xml:space="preserve">
<style type="text/css">
	.st0{display:none;}
	.st1{fill:none;}
	.st2{opacity:0.6;fill:#669999;}
	.st3{opacity:0.6;fill:#CC6666;}
	.st4{font-family:'Lexend-Thin';}
	.st5{font-size:25px;}
</style>
<g id="Fondo">
	<rect class="st1" width="1920" height="1245.45"/>
</g>
<g id="Imágen">
	
		<image style="overflow:visible;" width="2732" height="2048" src="images/Zorro1.png"  transform="matrix(0.6415 0 0 0.6415 83.6963 89.2553)">
	</image>
	
		<image style="overflow:visible;" width="2732" height="2048" src="images/Zorro1.png"  transform="matrix(0.6415 0 0 0.6415 83.6963 89.2553)">
	</image>
</g>
<g id="Huesos">
	<path class="st2" d="M1349.43,568.34c-0.81-4.79-8.26-2.36-10.64-11.55s6.55-8.53,7.57-13.98c1.02-5.45-24.27-59.12-49.06-74.11
		c-15.96-9.65-32.04-13.47-51.36-6.57c-19.07,6.81-38.81,30.3-40.51,36.09s-2.72,20.77,9.19,22.47
		c11.91,1.7,66.72,22.13,75.23,30.64s25.53,16.34,27.91,21.11c2.38,4.77,1.02,10.21,5.11,10.21s4.09-9.53,11.23-10.55
		C1341.26,571.06,1350.87,576.9,1349.43,568.34z"/>
	<path class="st2" d="M1034.19,452.43c0,0-32.68,9.7-46.98,31.15s-29.11,51.57-29.62,72.51c-0.51,20.94,8.17,41.87,13.79,48.51
		c5.62,6.64,20.43,29.11,28.6,35.23c8.17,6.13-10.72-21.96-14.81-28.6c-4.09-6.64-22.98-30.64-19.4-51.06
		c3.57-20.43,15.81-63.83,30.12-74.55c14.31-10.72,22.48-23.36,40.35-27C1054.11,454.98,1042.36,452.43,1034.19,452.43z"/>
	<path class="st2" d="M1068.4,458.62c0,0-14.2,2.33-22.8,6.06c-14.41,6.26-35.41,24-41.03,37.28s-17.36,42.89-19.91,62.81
		c-2.55,19.91-0.51,29.11,0,37.79c0.51,8.68,14.3,29.62,19.4,32.68c5.11,3.06-9.19-15.32-10.21-26.04
		c-1.02-10.72-2.4-56.17,7.74-77.62c10.14-21.45,25.06-40.74,39.31-50.87c11.49-8.17,25.98-12.96,37.21-13.98
		C1089.34,465.7,1075.98,457.15,1068.4,458.62z"/>
	<path class="st2" d="M1096.15,464.51c0,0-28.94,8.85-40.85,22.13c-11.91,13.28-20.43,26.21-27.91,39.49
		c-7.49,13.28-13.62,44.6-16,54.81c-2.38,10.21-2.38,33.7,0,43.57c2.38,9.87,5.79,20.77,15.66,29.28c9.87,8.51,32,17.36,32.34,18.38
		c0.34,1.02-2.72-6.13-11.23-11.91s-25.53-17.02-28.26-30.64c-2.72-13.62,0.27-50.38,5.41-67.4c5.14-17.02,28.63-66.04,41.57-75.23
		s29.28-6.13,32.68-9.87C1102.96,473.36,1100.92,462.9,1096.15,464.51z"/>
	<path class="st2" d="M1121,467.91c0,0-5.45,4.77-10.21,6.47c-4.77,1.7-28.26,14.3-38.13,30.98s-26.21,65.7-29.62,77.28
		c-3.4,11.57-11.91,43.61-3.4,58.06s27.91,30.79,34.38,33.86c6.47,3.06,10.89,5.11,15.32,6.47c4.43,1.36-13.62-7.83-20.09-14.64
		c-6.47-6.81-25.52-27.57-23.65-47.32s23.05-89.19,32.88-102.13c9.83-12.94,25.83-39.15,36.73-38.47c10.89,0.68,18.38,0,16.68-3.06
		C1130.19,472.34,1123.83,465.68,1121,467.91z"/>
	<path class="st2" d="M1147.21,472.34c0,0-15.66,2.04-28.26,15.66c-12.6,13.62-32.68,53.45-38.81,77.62
		c-6.13,24.17-15.32,45.96-8.51,67.06s29.96,48.34,44.26,51.4c14.3,3.06,30.3,3.74,34.04,3.74c3.74,0-35.74-9-42.89-15.56
		s-29.28-31.76-30.3-45.03c-1.02-13.28,15.66-71.15,21.11-85.79c5.45-14.64,17.36-43.23,32.68-52.09
		c15.32-8.85,20.77-3.74,22.13-8.85S1152.66,474.38,1147.21,472.34z"/>
	<path class="st2" d="M1177.51,480.51c-7.49,0-21.45-3.74-31.32,10.55c-9.87,14.3-32.68,51.06-38.13,89.02
		c-5.45,37.96-10.21,51.91-2.04,67.91c8.17,16,19.79,25.87,33.55,29.96c13.77,4.09,16.15,7.15,21.26,6.47
		c5.11-0.68,2.34-4.77-7.68-9.53c-10.02-4.77-33.17-11.57-37.26-24.51c-4.09-12.94-2.04-55.83,3.74-73.53
		c5.79-17.7,18.04-65.7,27.91-76.94s22.13-5.45,29.96-9.53c7.83-4.09,12.94-1.7,9.53-4.77
		C1183.64,482.55,1177.51,480.51,1177.51,480.51z"/>
	<path class="st2" d="M1202.36,482.21c0,0-1.7-5.79-3.74-4.77c-2.04,1.02-2.04,1.7-4.43,4.77c-2.38,3.06-14.98,9.19-26.89,36.77
		c-11.91,27.57-23.15,70.13-24.51,84.77s-7.15,12.6-4.43,25.53s-3.06,21.79,13.28,31.66c16.34,9.87,27.91,17.02,34.38,17.36
		c6.47,0.34,15.32-6.03,15.32-6.03s-28.26-1.8-40.17-12.01c-11.91-10.21-12.29-40.51-8.02-61.28c4.27-20.77,16.19-85.79,30.49-96.34
		c14.3-10.55,22.47-9.53,24.85-13.62C1210.87,484.94,1206.79,483.23,1202.36,482.21z"/>
	<path class="st2" d="M1202.7,505.36c-3.4,9.87-12.15,25.87-14.59,30.64c-2.43,4.77-17.09,43.23-14.7,71.15
		c2.39,27.91-6.12,31.66,10.9,45.62c17.02,13.96,39.15,15.66,41.87,15.32c2.72-0.34,5.79-4.43-2.38-6.81
		c-8.17-2.38-38.13-6.81-39.83-29.62c-1.7-22.81,1.02-72.83,8.17-85.1s17.04-28.1,17.04-28.1"/>
	<path class="st2" d="M1222.26,522.52c-4.58,7.35-9.31,19.95-13.07,44.12s-10.58,66.09,2.7,76.62
		c13.28,10.53,20.43,15.98,31.32,14.96c10.89-1.02,14.98-1.02,14.3-3.74c-0.68-2.72-6.47,1.36-15.32-1.02
		c-8.85-2.38-22.47-7.15-24.85-21.79c-2.38-14.64-4.43-57.19,1.02-70.47c5.45-13.28,15.62-34.93,15.62-34.93"/>
	<path class="st2" d="M1243.73,529.73c-2.22,3.55-12.7,34.23-12.91,57.01c-0.21,22.79,1.16,40.15,14.77,48.83
		c13.62,8.68,24.17,12.43,27.91,9.36c3.74-3.06,8.31-8.85,3.48-9.36s-13.72,4.94-22.04,0s-17.86-28.05-14.45-48.83
		c3.4-20.78,3.37-43.48,14.45-52.73"/>
	<path class="st2" d="M1262.82,537.22c0,0-11.78,15.8-12.46,29.42c-0.68,13.62-2.38,49.36,9.53,57.53
		c11.91,8.17,22.47,10.89,29.62,9.53s17.7-8.17,7.49-8.51c-10.21-0.34-20.43,7.15-29.62-8.51c-9.19-15.66-13.62-46.64-6.13-58.21
		c7.49-11.57,11.11-17.08,11.11-17.08"/>
	<path class="st2" d="M1279.08,544.61c-2.16,4.67-8.97,24.75-7.61,35.48c1.36,10.72,0.68,26.38,9.19,30.13s22.47,7.83,29.96,4.77
		c7.49-3.06,8.51-8.85,0-9.87c-8.51-1.02-17.02-2.38-21.79-8.85c-4.77-6.47-7.49-21.79-6.13-30.98c1.36-9.19,5.42-15.4,5.42-15.4"/>
	<path class="st2" d="M1298.82,558.48c-3.53,5.78-7.27,20.95-2.51,27.15c4.77,6.2,14.4,13.69,20.3,14.37
		c5.91,0.68,14.08-5.11,9.99-5.79c-4.09-0.68-10,0.94-15.72-3.79c-5.72-4.72-11.44-19.02-4.32-26.85"/>
	<path class="st2" d="M1345,577.82c9.66,2.2,8.85,6.29,1.36,22.24c-7.49,15.94-4.43,21.39-22.81,31.6
		c-18.38,10.21-27.23,28.33-48,36.46c-20.77,8.13-70.47,30.26-89.19,37.75c-18.72,7.49-11.91,10.21-9.87,17.7
		c2.04,7.49,3.54,13.96-3.33,15.66c-6.88,1.7-17.47,0-20-7.83c-2.53-7.83-4.92-13.96,2.57-20.77s21.79-17.36,40.51-22.81
		c18.72-5.45,60.58-22.47,75.06-34.72c14.48-12.26,33.75-24.85,39.6-32.34c5.85-7.49,18.45-18.72,19.13-23.15
		c0.68-4.43-8.85-2.83-5.11-9.76C1328.66,580.94,1335.81,575.72,1345,577.82z"/>
	<path class="st2" d="M1143.47,705.87c-3.6-4.91-10.55-3.74-14.98,0c-4.43,3.74-12.45,12.6,3.65,35.74
		c16.1,23.15,28.35,41.53,35.16,65.7s14.64,59.57,14.98,77.28c0.34,17.7,45.79,124.54,48,135.4c3.06,15.06,12.75,36.41,25.53,59.23
		c7.15,12.77,14.98,21.53,25.87,23.57c10.89,2.04,11.23,10.21,10.89,2.04s-12.94-13.62-12.94-13.62s17.36,6.13,26.21,4.09
		c8.85-2.04,12.6,14.27,14.98,13.09c2.38-1.18,0-16.5,0-16.5s15.32,11.23,15.32,13.96s6.47-6.13,6.13-7.49s13.96,4.09,1.7-5.11
		c-12.26-9.19-26.69-8.69-51.06-15.32c-36.6-9.96-33.84-49.4-39.3-60.3c-5.46-10.89-15.08-48.98-20.53-58.17
		c-5.45-9.19-10.72-31.06-9.7-39.57c1.02-8.51-24.43-96.6-31.57-116c-7.15-19.4-16-35.74-11.91-44.94
		c4.09-9.19,3.06-13.96,3.4-16.34s-5.79,1.7-14.98,0.68c-9.19-1.02-23.83-3.06-25.19-13.96S1147.21,710.98,1143.47,705.87z"/>
	<path class="st2" d="M1341.94,520.63c6.47-3.35,1.31-9.48,7.64-11.18c6.32-1.7,11.77-6.81,8.02-8.51c-3.74-1.7-13.28,2.72-15.66,0
		c-2.38-2.72,4.43-5.45,3.06-11.57s-11.91-15.88-12.94-21.9c-1.02-6.02,4.09-16.57,2.38-23.04s-4.77-7.15-8.85-5.45
		c-4.09,1.7-6.13,18.73-5.11,25.36c1.02,6.64,9.69,13.1,7.23,17.53c-2.46,4.43-7.49,10.06-7.49,10.06"/>
	<path class="st2" d="M1314.33,484.34c-2.92-3.38-4.39-8.93-5.42-19.99s2.04-24.23-5.79-26.16c-7.83-1.93-5.79,2.84-4.77,9.31
		c1.02,6.47-3.17,19.97-3.17,19.97"/>
	<path class="st2" d="M1286.46,463.13c0,0,1.01-16.66-1.71-21.08c-2.72-4.43-6.81-3.74-9.19-2.04c-2.38,1.7,3.05,20.38,1.43,20.02"
		/>
	<path class="st2" d="M1261.94,458.72c0,0,1.36-8.51,0-13.62s-4.06-11.47-10.54-6.92c-6.48,4.54-1.35,14.75,0,17.48
		c1.35,2.72,0,4.78,0,4.78"/>
	<path class="st2" d="M1245.94,462.13c0,0-13.28-12.6-12.6-18.04c0.68-5.45,0.04-6.36-2.54-5.9c-2.57,0.46-5.64-1.93-7,2.84
		s0.34,6.81,3.74,11.4c3.4,4.6,7.13,11.39,7.08,13.45s-2.62,3.8-2.62,3.8"/>
	<path class="st2" d="M1233.85,463.13c0,0-21.58-9.51-24.66-16.32c-3.09-6.81,0.66-6.13-5.13-5.45c-5.79,0.68-6.56,3.78-2.94,9.55
		c3.62,5.77,15.27,21.43,15.27,21.43s-27.65-29.08-33.77-31.39c-6.13-2.31-11.23-3.13-11.23,0s17.12,14.92,16.73,20.09
		c-0.39,5.17-0.39,9.26-5.16,11.3c-4.77,2.04-1.61,9.19,1.24,11.23c2.85,2.05,7.71,0.76,7.71,0.76"/>
	<path class="st2" d="M1187.85,464.34c0,0-24.64-13.45-29.75-19.58c-5.11-6.13-12.26-11.99-15.32-7.02
		c-3.06,4.97,22.13,21.71,19.06,24.06s-14.18,3.83-11.17,7.86s15.26,9.14,20.7,6.07C1176.83,472.68,1186.28,474.39,1187.85,464.34z"
		/>
	<path class="st2" d="M1159.28,463.13c0,0-7.21,0.1-14.4-9.3c-7.2-9.4-11.96-19.16-16.05-15.64c-4.09,3.52,1.16,9.05,3.31,15.64
		c2.14,6.6,7.51,4.43,5.51,7.22s-7.18-0.27-10.33,3.3c-3.15,3.57,2.3,8,2.3,8s17.7,0.36,19.64-2.67"/>
	<path class="st2" d="M1129.87,448.53c-1.19-2.47-5.12-10.87-9.55-10.55c-4.43,0.32-1.36,9.2-2.38,12.93s-9.19,7.77-8.85,12.22
		s8.89,4.85,11.91,4.79s5.49-2.12,5.49-2.12s2.71-3.2,3.38-7.17C1130.53,454.64,1129.87,448.53,1129.87,448.53z"/>
	<path class="st2" d="M1111.19,435.88c0,0,0.62-2.08-4.83,0s-7.15,9.22-11.91,9.22c-4.77,0-8.51,10-4.09,13.34
		c4.43,3.34,7.91,4.91,11.28,2.59c3.36-2.32,11.87-5.35,11.87-10.13C1113.51,446.13,1111.19,435.88,1111.19,435.88z"/>
	<path class="st2" d="M1092.06,443.06c3.18-3.5,0.68-4.43,2.72-9.87s-8.04-8.51-12.36-5.45c-4.32,3.06-16.23,9.87-16.57,15.32
		s3.74,6.15,10.21,9.88c6.47,3.73,2.36-0.95,7.99-4.39C1089.68,445.11,1088.66,446.81,1092.06,443.06z"/>
	<path class="st2" d="M1070.96,426.53c-2.94-2.32-5.88,8.84-15.54,8.43c-9.65-0.41-30.08-2.73-33.48,1.67
		c-3.4,4.39-5.11,10.57,1.36,11.91c6.47,1.34,24.85,10.07,33.36,7.75s7.15-7.01,4.09-7.73c-3.06-0.72-2.38-5.65,2.38-9.65
		C1067.89,434.89,1076.74,431.1,1070.96,426.53z"/>
	<path class="st2" d="M1061.09,417.53c-1.47,0.92-6.81,5.79-12.94,5.79s-16.34,3.06-17.02,4.77c-0.68,1.7-0.18,5.95,1.79,5.93
		c1.96-0.03,17.95,1.69,22.51,0.95c4.56-0.75,12.43-5.85,13.81-10.28C1070.62,420.26,1066.87,413.93,1061.09,417.53z"/>
	<path class="st2" d="M1029.09,419.91c-5.76-2.12-14.3,6.34-21.11,5.89c-6.81-0.45-21.79-3.4-23.15-2.94
		c-1.36,0.45,5.11,9.78,6.13,12.09c1.02,2.32-8.51,8.79-1.02,11.51c7.49,2.72,14.45,10.21,16.93,5.96s5.54-3.89,5.54-3.89
		s3.15,6.83,6.51,5.79c3.36-1.04-11.96-12.44-6.51-15.42c5.45-2.98,10.82-4.34,12.9-7.75
		C1027.38,427.74,1035.55,422.3,1029.09,419.91z"/>
	<path class="st2" d="M993.68,416.47c2.25-1.04,14.98-0.64,18.38-4.04c3.4-3.4,8.44-5.45,13.24-2.72c4.8,2.72,4.35,4.45,2.42,7.21
		s-13.79,11.27-18.13,8.84c-4.34-2.43-29.23,0.29-24.95-4.82C988.91,415.83,987.89,419.15,993.68,416.47z"/>
	<path class="st2" d="M1358.82,454.9c0,0,5.99-7.07,0-12.69c-5.99-5.62-12.12-7.66-12.63,0s-1.53,18.22-4.6,22.13
		s-2.43,10.89,7.98,15.06c10.41,4.17,0.09,6.72,1.17,9.79c1.07,3.06,6.18,12.77,14.35,3.06c8.17-9.7,14.81-14.3,19.4-15.58
		s-2.55-6.04-6.64-12.34s1.02-16.13-3.57-15.81S1364.3,458.4,1358.82,454.9z"/>
	<path class="st2" d="M1383.47,452.95c4.6,4.59-3.66,14.06,2.51,16.73c6.17,2.67,3.62-9.34,10.77-15.85
		c7.15-6.51,18.89-13.59,13.79-17.2c-5.11-3.61-14.07,0.48-12.91-7.69c1.16-8.17-10.16-11.23-11.65-4.6s-2.51,5.11-8.13,0
		s-10.21-8.39-10.72,2.19c-0.51,10.58-10.72,12.06-4.15,18.27c6.58,6.21,12.32-0.99,15.89,0
		C1382.45,445.79,1383.47,452.95,1383.47,452.95z"/>
	<path class="st2" d="M1426.36,415.15c5.52-7.59-2.55-22.98-7.66-31.66c-5.11-8.68-11.74-6.13-16.85,0
		c-5.11,6.13-10.2,18.38-15.57,20.94s-8.94,10.21-6.39,10.72c2.55,0.51,14.81,1.14,17.87,4.4c3.06,3.26-1.35,7.35,4.94,8.88
		s3.68,7.15,9.07,4.09c5.39-3.06-1.76-12.14,4.37-12.96S1422.28,420.77,1426.36,415.15z"/>
	<path class="st2" d="M1443.72,371.74c-6.64-2.04-13.14,1.53-15.51,3.57c-2.37,2.04-11.05,2.55-7.47,5.11s15.83,25.53,13.28,28.6
		c-2.55,3.06-0.51,11.74,5.11,3.06c5.62-8.68,13.79-12.18,14.81-18.6s-2.55-11.99-6.64-15.59
		C1443.21,374.3,1443.72,371.74,1443.72,371.74z"/>
	<path class="st2" d="M1458.53,323.23c-4.49,7.29-0.16,12.77-4.42,20.94c-4.26,8.17-9.88,19.91-6.3,22.47s6.64,7.66,10.72,15.83
		c4.09,8.17-7.66,18.38,6.64,19.91c14.3,1.53,22.98,8.68,28.6-4.6c5.62-13.28,2.55,8.17,2.55,10.72s-15.32,3.18-12.26,11.04
		c3.06,7.86,16.34,18.49,20.43,29s-3.06,24.81,25.53,39.62c28.6,14.81,64.34,39.32,105.19,38.3c40.85-1.02,62.3-11.57,70.98-21.11
		c8.68-9.53-15.83-19.91-15.83-25.96s6.64-14.26-2.04-16.28c-8.68-2.02-35.74-19.89-43.4-22.7c-7.66-2.81-26.04-9.84-30.64-20.88
		c-4.6-11.04-11.74-29.42-19.4-38.61c-7.66-9.19-56.68-52.6-71.49-57.7c-14.81-5.11-41.87-9.19-50.04-7.66
		C1465.17,317.11,1462.62,316.6,1458.53,323.23z"/>
	<path class="st2" d="M987.21,406.98c-2.04,3.32-10.47,6.37-9.19,10.33c1.28,3.96,7.44,12.9,5.38,16.47
		c-2.06,3.57-3.34,20.68-9.21,16.34c-5.87-4.34-11.23-16.68-12.77-14.98s-2.55,2.71-6.38,6.29c-3.83,3.58-14.81-6.7-17.87-12.54
		c-3.06-5.84-7.66-7.8-7.15-12.44c0.51-4.64-6.38-5.91-6.13-9.49s-2.81-10.47,8.17-9.45c10.98,1.02,11.79-3.32,23.39-5.36
		c11.59-2.04,16.7,1.53,14.15,5.11c-2.55,3.57-7.66,9.7-3.06,12.26s9.7-3.06,15.57-4.85S987.21,406.98,987.21,406.98z"/>
	<path class="st2" d="M930.53,392.68c0.74-4.05-6.38-4.09-9.7-4.09s9.7-3.32,4.85-8.43c-4.85-5.11-10.47-4.34-15.06-3.83
		c-4.6,0.51-7.15,8.06-13.79,7.99s-12.51-1.09-13.28,2.74c-0.77,3.83-8.68,2.13-8.94,4.51s8.43,10.3,8.17,15.15
		c-0.26,4.85,4.34,10.89,12.77,12.85c8.43,1.96,10.98,13.36,17.11,15.57c6.13,2.21,7.66,1.7,6.13-6.72s8.34-7.42,6.72-11.11
		c-1.62-3.7-9.79-6.18-9.02-11.19c0.77-5.01,4.77-10.37,9.02-10.63C929.77,395.23,930.02,395.49,930.53,392.68z"/>
	<path class="st2" d="M876.66,380.17c-1.44-0.16-8.43,1.53-7.15-1.79c1.28-3.32,9.45-7.4,8.43-10.47
		c-1.02-3.06-8.17-8.68-15.83-4.34s-13.53,11.01-17.87,12.4c-4.34,1.39-7.66,4.96-10.21,6.75c-2.55,1.79,4.09,2.04,4.09,7.15
		s-9.34,10.98-4.67,14.3c4.67,3.32,10.03,2.16,18.71,4.27c8.68,2.11,3.57,8.86,13.02,12.76c9.45,3.91,16.34,7.07,11.74,0
		c-4.6-7.07,0.51-6.45,0.51-12.76c0-6.31-2.81-6.57-5.11-10.4c-2.3-3.83,8.43-8.43,8.17-13.02
		C880.23,380.43,878.67,380.4,876.66,380.17z"/>
	<path class="st2" d="M834.02,373.28c-1.79-2.55-13.02-0.77-8.68-4.85c4.34-4.09,10-3.57,6.79-7.4c-3.21-3.83-8.58-5.36-14.19-1.28
		c-5.62,4.09-5.11,10.21-10.47,12.26s-10.72,2.33-10.72,3.97c0,1.65,1.28,6.75-1.79,9.56s1.79,4.85,4.34,10.47
		c2.55,5.62-4.6,15.43,2.3,12.44c6.89-2.99,11.23-5.29,14.55-4.27c3.32,1.02,4.09,15.68,11.49,17.03s13.53-0.19,10.47-3.89
		s-10.72-9.31-11.49-13.65c-0.77-4.34,8.98-13.53,5.51-16.09s-7.55-0.51-7.81-4.09c-0.26-3.57,5.66-3.06,7.81-4.85
		C834.28,376.85,834.02,373.28,834.02,373.28z"/>
	<path class="st2" d="M788.32,372.51c-3.68-0.92,4.85-11.49,1.28-12c-3.57-0.51-9.19,2.81-15.06,8.94
		c-5.87,6.13-11.49,8.43-14.3,9.96c-2.81,1.53-17.36,8.92-10.21,14.29c7.15,5.37-0.26,8.25,3.57,12.42
		c3.83,4.18,6.89-0.93,12.51-1.69s15.06,10.89,21.96,15.15c6.89,4.26,17.87,3.48,16.09-2.26s-14.81-4.46-17.36-12.38
		c-2.55-7.91,2.3-3.06,3.32-9.19s2.12-7.4,3.87-12.77S792.4,373.53,788.32,372.51z"/>
	<path class="st2" d="M754.62,374.3c0-5.43-1.61-11.23-6.55-11.23c-4.94,0-11.58,5.36-15.15,8.17s-6.38-0.51-2.81,7.91
		c3.57,8.43-3.32,25.02,3.32,28.6s10.47,16.93,21.19,17.66c10.72,0.73,11.74-1.83,10.21-6.17s-17.7-7.66-16.76-12.26
		c0.93-4.6,4.51-6.89,1.7-9.7c-2.81-2.81-6.71-6.38-2.84-10.47C750.79,382.72,754.62,378.64,754.62,374.3z"/>
	<path class="st2" d="M720.4,371.74c-7.91-4.34-18.99-12.76-26.81-11.29c-13.79,2.6-26.04,8.89-30.64,19.46
		c-4.6,10.56-44.17,57.7-53.87,60c-9.7,2.3-32.17,21.45-37.79,26.04c-5.62,4.6-15.83,35.13-2.04,39.72s26.04,18.38,41.87,14.55
		c15.83-3.83,26.81-22.87,34.72-23.38c7.91-0.51,16.6-12.77,22.98-20.68c6.38-7.91-0.51-14.81,10.47-24.77
		c10.98-9.96,27.57-27.52,41.11-29.72c13.53-2.2,12.01-33.85,8.05-39.73C724.49,376.09,720.4,371.74,720.4,371.74z"/>
	<path class="st2" d="M631.89,511.66c0,0,22.39,54.11,22.39,68.67s2.4,25.22-7.48,35.72c-9.88,10.5-24.18,21.44-13.96,27.2
		c10.21,5.77,25.57,2.74,39.83,2.74c4.85,0-11.23,32.16,0,26.28c11.23-5.89,18.38-22.53,16.34-31.57s-22.12-71.1-29.95-93.69
		c-7.83-22.59-3.11-51.36-13.2-50.16C635.76,498.05,631.89,511.66,631.89,511.66z"/>
	<path class="st2" d="M646.79,658.33c-8.86-0.12-16.01-17.78-25.2-15.08c-9.19,2.7-28.83,27.44-52.32,41.27
		c-23.49,13.82-129.21,57.56-135.34,61.64c-6.13,4.09-0.94,19.41,11.31,17.37c12.26-2.04,162.82-63.91,180.18-72.56
		c17.36-8.65,29.87-18.04,28.85-22.85C653.26,663.32,646.79,658.33,646.79,658.33z"/>
	<path class="st2" d="M436.06,765.84c-7.7,0-10.89-2.57-12.26-10.31c-1.36-7.74-8.85-13.86-7.83-5.01s-8.51,136.51-13.62,145.36
		s-17.1,13.62-18.59,25.02s-10.73,34.12-8.64,36.94c3.74,5.05,16-17.08,16-10.21c0,15.38-7.83,26.84,4.09,19.35
		c11.91-7.49,12.26-19.74,12.26-19.74s-2.68,21.05,0,23.15c4.77,3.74,14.3-21.11,17.36-24.45c2.12-2.32-7.15,33.02-2.04,24.51
		s17.7-10.21,13.28-26.55c-4.43-16.34-7.68-107.23,0.93-129.36c8.61-22.13,34.48-56.85,21.54-52.09
		C445.6,767.21,442.53,765.84,436.06,765.84z"/>
	<path class="st2" d="M659.33,492.32c0,0,88.9,91.24,91.58,105.55c2.67,14.31,8.52,16.21,0.73,28.34
		c-7.78,12.13-5.99,16.29,5.11,20.09c11.1,3.79,11.52-0.71,25.53-3.32c4.77-0.89,10.28,16.66,20.24,8.82s0.45-20.81-3.22-29.32
		c-3.67-8.51-51.81-63.32-63.66-84.09c-11.85-20.76-54.51-62.78-64.2-59.75S659.33,492.32,659.33,492.32z"/>
	<path class="st2" d="M772.23,660.1c-8.73,1.51-19-14.54-27.54-10.2s-41.87,48.09-62.42,65.98c-20.55,17.9-117.23,88.59-122.5,93.73
		s-2.17,21.87,9.51,17.62c11.67-4.26,153.89-103.62,169.37-115.31s44.62-39.04,42.73-43.57C779.49,663.82,772.23,660.1,772.23,660.1
		z"/>
	<path class="st2" d="M557.26,832.85c-8.98-0.77-8.25-10.16-13.78-15.74c-5.53-5.58-5.89,21.82,0,28.51
		c5.89,6.69,54.45,127.18,55.31,137.36c0.85,10.18,19.91,8.51,25.19,18.72c5.28,10.22,36.17,11.81,39.49,12.94
		c5.96,2.01-7.22-19.6-3.31-13.96c8.77,12.64,11.48,10.89,17.95,13.62c12.97,5.46-5.11-21.28-5.11-21.28s11.24,18.44,13.38,15.78
		c7.39-9.19-7.68-14.17-7.07-18.67c0.42-3.11,15.13,17.73,14.47,7.82c-0.66-9.9-6.81-12.26-13.96-15.32
		c-8.13-3.48-31.17,6.23-52.43-12.6c-19.44-17.22-36.01-65-38.66-76.03c-5.55-23.08-2.03-77.39-9.93-66.1
		C570.88,839.21,563.7,833.4,557.26,832.85z"/>
	<path class="st2" d="M654.35,383.74c0,0-8.25-3.06-19.74,0c-11.49,3.06-22.98,13.79-26.81,16.85c-3.83,3.06,5.36,4.97,12.26,7.84
		c6.89,2.88,19.91-3.25,21.45-6.31C643.04,399.06,654.35,383.74,654.35,383.74z"/>
	<path class="st2" d="M618.53,382.38c-8.43,0.6-25.28,9.77-28.34,11.31c-3.06,1.54-5.36,17.2,0,15.5s24.51-14.69,28.34-19.69
		C622.36,384.51,618.53,382.38,618.53,382.38z"/>
	<path class="st2" d="M571.89,391.37c-5.11,2.33-18.38,0.5-13.96,4.48c4.43,3.98,6.13,27.6,10.89,25.83
		c4.77-1.77,8.85-8.58,11.91-10.28C583.81,409.7,577,389.04,571.89,391.37z"/>
	<path class="st2" d="M559.64,417.53c-5.11-12.6-2.72-22.13-6.47-18.72c-3.74,3.4-1.36,14.3-9.19,14.64
		c-7.83,0.34-12.94,6.94-10.89,8.24c2.04,1.29,4.43,10.49,11.57,12.53c7.15,2.04,8.78-5.8,12.39-8.69
		C560.66,422.64,559.64,417.53,559.64,417.53z"/>
	<path class="st2" d="M528.66,425.52c-6.35,1.95-13.28,1.88-14.64,5.63c-1.36,3.74,3.4,13.28,7.32,17.02
		c3.91,3.74,9.36,8.51,9.02,2.38c-0.34-6.13-3.29-6.98,2.27-9.96C538.19,437.62,533.29,424.1,528.66,425.52z"/>
	<path class="st2" d="M521.51,457.36c0,0-6.81,1.36-9.19,5.79c-2.38,4.43,0.68,14.3-2.72,14.98c-3.4,0.68-5.79-8.51-11.57-10.38
		s-3.74-6.64,2.04-10.38c5.79-3.74,7.1-14.02,7.98-17.9s3.6,0.54,4.28,3.61c0.68,3.06,9.19,6.56,9.19,10.43
		S521.51,457.36,521.51,457.36z"/>
	<path class="st2" d="M494.57,472c-4.36,0.53-6.08-0.27-7.78,6.16s-5.45,10.18-8.85,13.58c-3.4,3.4-14.3,11.91-9.53,14.3
		c4.77,2.38,15.66,11.91,16.34,4.77c0.68-7.15-0.34-16.68,4.09-20.09c4.43-3.4,13.62-6.81,13.62-9.53
		C502.45,478.47,498.88,471.48,494.57,472z"/>
	<path class="st2" d="M463.98,509.11c0,0-3.06,9.87-5.79,14.64c-2.72,4.77-13.28,17.36-12.94,21.45c0.34,4.09,3.06,14.98,9.36,13.96
		c6.3-1.02,2.22-10.89,7.66-20.43c5.45-9.53,11.57-13.86,14.98-17.83c3.4-3.96-6.8-11.79-10.04-11.79
		C463.98,509.11,463.98,509.11,463.98,509.11z"/>
	<path class="st2" d="M441.51,553.02c1.7,2.38,6.13,8.85,8.51,8.85c2.38,0,9.19,0.34,6.81,2.38c-2.38,2.04-22.47,13.53-24.17,20.55
		c-1.7,7.02-3.59,13.49-6.9,14.17c-3.31,0.68-7.21-2.38-7.3-6.13s0.06-4.67,7.3-16.8c7.24-12.13,10.88-21.32,12.13-23.03
		C439.13,551.32,441.51,553.02,441.51,553.02z"/>
	<path class="st2" d="M414.96,599.07c-3.59-5.23-8.17-0.59-8.17,0c0,0.59-1.7,20.67-6.81,24.76c-5.11,4.09-18.38,10.21-20.43,16
		s-18.72,40.51-24.17,41.53c-5.45,1.02-2.38,10.55,2.38,9.53s9.94-10.21,17.06-18.72c7.11-8.51,14.6-20.77,18.69-21.11
		c4.09-0.34-0.68-10.89,7.15-18.38c7.83-7.49,23.31-26.21,25.1-28.6C427.55,601.7,416.37,601.14,414.96,599.07z"/>
	<path class="st2" d="M356.74,698.38c2.72-5.11-6.81-13.62-9.19-9.19s-12.94,23.83-18.04,28.6s-3.74,11.91,0,14.98
		c3.74,3.06,10.55-13.62,18.04-20.09S356.74,698.38,356.74,698.38z"/>
	<path class="st2" d="M324.74,742.98c-1.36-7.15-1.02-17.02-4.43-13.96c-3.4,3.06-10.55,10.79-13.28,17.14
		c-2.72,6.35-30.98,25.41-25.19,31.2s8.85,8.17,13.96,2.04C300.91,773.28,324.74,742.98,324.74,742.98z"/>
	<path class="st2" d="M285.94,790.3c-3.06-5.11-5.45-13.28-7.15-10.21c-1.7,3.06-22.13,36.09-19.74,40.85
		c2.38,4.77,4.77,4.09,6.13,0C266.53,816.85,285.94,790.3,285.94,790.3z"/>
</g>
<g id="Círculos_e_info">
	<circle class="st3" cx="1533.94" cy="314.72" r="114.04"/>
	<circle class="st3" cx="1310.89" cy="1039.32" r="114.04"/>
	<circle class="st3" cx="238.44" cy="824.26" r="114.04"/>
	<rect x="1474.87" y="96.51" class="st1" width="384.51" height="87.32"/>
	<text transform="matrix(1 0 0 1 1474.8721 115.0102)"><tspan x="0" y="0" class="st4 st5">Sus orejas son dos tercios de la </tspan><tspan x="0" y="30" class="st4 st5">longitud de la cabeza del </tspan><tspan x="0" y="60" class="st4 st5">pequeño zorro</tspan></text>
	<rect x="1455.72" y="1047.83" class="st1" width="384.51" height="87.32"/>
	<text transform="matrix(1 0 0 1 1455.7231 1066.3293)"><tspan x="0" y="0" class="st4 st5">Tiene manchas rojizas en la parte </tspan><tspan x="0" y="30" class="st4 st5">inferior de sus cuatro patas </tspan></text>
	<rect x="93.68" y="1026.96" class="st1" width="384.51" height="87.32"/>
	<text transform="matrix(1 0 0 1 93.6807 1045.4572)"><tspan x="0" y="0" class="st4 st5">En el extreno de su color posee </tspan><tspan x="0" y="30" class="st4 st5">un gris más oscuro</tspan></text>
	<rect x="48.66" y="41.36" class="st1" width="432" height="81.19"/>
	<text transform="matrix(1 0 0 1 48.6597 59.8618)" class="st4 st5">*El esqueleto aparecería con un hover</text>
</g>
</svg>
